<svg xmlns="http://www.w3.org/2000/svg" width="744" height="1039" viewBox="0 0 744 1039">
<defs><linearGradient id="g" x1="0" x2="1" y1="0" y2="1"><stop offset="0" stop-color="hsl(78 63% 40%)"/><stop offset="1" stop-color="hsl(249 79% 46%)"/></linearGradient></defs>
<rect width="744" height="1039" fill="#080b14"/>
<rect x="20" y="20" width="704" height="999" rx="28" fill="url(#g)"/>
<circle cx="119" cy="309" r="103" fill="hsl(78 63% 40%)" opacity="0.26"/><circle cx="567" cy="264" r="148" fill="hsl(249 79% 46%)" opacity="0.47"/><circle cx="273" cy="397" r="116" fill="hsl(56 89% 59%)" opacity="0.19"/><circle cx="244" cy="392" r="66" fill="hsl(78 63% 40%)" opacity="0.16"/><circle cx="410" cy="215" r="128" fill="hsl(249 79% 46%)" opacity="0.35"/>
<path d="M40 760 Q372 749 704 760 L704 1010 L40 1010 Z" fill="hsl(249 79% 46%)" opacity="0.5"/>
<rect x="70" y="850" width="14" height="119" fill="hsl(56 89% 59%)" opacity="0.55"/><rect x="90" y="840" width="14" height="97" fill="hsl(56 89% 59%)" opacity="0.55"/><rect x="110" y="830" width="14" height="106" fill="hsl(56 89% 59%)" opacity="0.55"/><rect x="130" y="820" width="14" height="124" fill="hsl(56 89% 59%)" opacity="0.55"/><rect x="150" y="810" width="14" height="128" fill="hsl(56 89% 59%)" opacity="0.55"/><rect x="170" y="800" width="14" height="99" fill="hsl(56 89% 59%)" opacity="0.55"/><rect x="190" y="790" width="14" height="122" fill="hsl(56 89% 59%)" opacity="0.55"/><rect x="210" y="780" width="14" height="113" fill="hsl(56 89% 59%)" opacity="0.55"/><rect x="230" y="770" width="14" height="95" fill="hsl(56 89% 59%)" opacity="0.55"/><rect x="250" y="760" width="14" height="106" fill="hsl(56 89% 59%)" opacity="0.55"/><rect x="270" y="750" width="14" height="79" fill="hsl(56 89% 59%)" opacity="0.55"/><rect x="290" y="740" width="14" height="87" fill="hsl(56 89% 59%)" opacity="0.55"/><rect x="310" y="730" width="14" height="119" fill="hsl(56 89% 59%)" opacity="0.55"/><rect x="330" y="720" width="14" height="112" fill="hsl(56 89% 59%)" opacity="0.55"/><rect x="350" y="710" width="14" height="110" fill="hsl(56 89% 59%)" opacity="0.55"/><rect x="370" y="700" width="14" height="110" fill="hsl(56 89% 59%)" opacity="0.55"/>
<text x="372" y="90" text-anchor="middle" fill="#ffffff" font-size="44" font-family="Verdana">Damboy, Maréchal des Survivants</text>
<text x="372" y="980" text-anchor="middle" fill="#f3f3f3" font-size="26" font-family="Verdana">Coalition Humaine • H-001</text>
</svg>