<svg xmlns="http://www.w3.org/2000/svg" width="744" height="1039" viewBox="0 0 744 1039">
<defs><linearGradient id="g" x1="0" x2="1" y1="0" y2="1"><stop offset="0" stop-color="hsl(186 70% 48%)"/><stop offset="1" stop-color="hsl(170 71% 42%)"/></linearGradient></defs>
<rect width="744" height="1039" fill="#080b14"/>
<rect x="20" y="20" width="704" height="999" rx="28" fill="url(#g)"/>
<circle cx="466" cy="656" r="137" fill="hsl(186 70% 48%)" opacity="0.23"/><circle cx="416" cy="390" r="33" fill="hsl(170 71% 42%)" opacity="0.16"/><circle cx="328" cy="257" r="67" fill="hsl(156 88% 54%)" opacity="0.30"/><circle cx="205" cy="520" r="34" fill="hsl(186 70% 48%)" opacity="0.47"/><circle cx="585" cy="661" r="78" fill="hsl(170 71% 42%)" opacity="0.29"/>
<path d="M40 760 Q372 656 704 760 L704 1010 L40 1010 Z" fill="hsl(170 71% 42%)" opacity="0.5"/>
<rect x="70" y="850" width="14" height="86" fill="hsl(156 88% 54%)" opacity="0.55"/><rect x="90" y="840" width="14" height="104" fill="hsl(156 88% 54%)" opacity="0.55"/><rect x="110" y="830" width="14" height="123" fill="hsl(156 88% 54%)" opacity="0.55"/><rect x="130" y="820" width="14" height="83" fill="hsl(156 88% 54%)" opacity="0.55"/><rect x="150" y="810" width="14" height="73" fill="hsl(156 88% 54%)" opacity="0.55"/><rect x="170" y="800" width="14" height="70" fill="hsl(156 88% 54%)" opacity="0.55"/><rect x="190" y="790" width="14" height="85" fill="hsl(156 88% 54%)" opacity="0.55"/><rect x="210" y="780" width="14" height="88" fill="hsl(156 88% 54%)" opacity="0.55"/><rect x="230" y="770" width="14" height="89" fill="hsl(156 88% 54%)" opacity="0.55"/><rect x="250" y="760" width="14" height="74" fill="hsl(156 88% 54%)" opacity="0.55"/><rect x="270" y="750" width="14" height="101" fill="hsl(156 88% 54%)" opacity="0.55"/><rect x="290" y="740" width="14" height="107" fill="hsl(156 88% 54%)" opacity="0.55"/><rect x="310" y="730" width="14" height="94" fill="hsl(156 88% 54%)" opacity="0.55"/><rect x="330" y="720" width="14" height="91" fill="hsl(156 88% 54%)" opacity="0.55"/><rect x="350" y="710" width="14" height="105" fill="hsl(156 88% 54%)" opacity="0.55"/><rect x="370" y="700" width="14" height="93" fill="hsl(156 88% 54%)" opacity="0.55"/>
<text x="372" y="90" text-anchor="middle" fill="#ffffff" font-size="44" font-family="Verdana">Protocole Convoi du Cratère</text>
<text x="372" y="980" text-anchor="middle" fill="#f3f3f3" font-size="26" font-family="Verdana">Coalition Humaine • P-006</text>
</svg>