<svg xmlns="http://www.w3.org/2000/svg" width="744" height="1039" viewBox="0 0 744 1039">
<defs><linearGradient id="g" x1="0" x2="1" y1="0" y2="1"><stop offset="0" stop-color="hsl(60 84% 50%)"/><stop offset="1" stop-color="hsl(153 68% 54%)"/></linearGradient></defs>
<rect width="744" height="1039" fill="#080b14"/>
<rect x="20" y="20" width="704" height="999" rx="28" fill="url(#g)"/>
<circle cx="547" cy="177" r="37" fill="hsl(60 84% 50%)" opacity="0.13"/><circle cx="430" cy="571" r="120" fill="hsl(153 68% 54%)" opacity="0.30"/><circle cx="381" cy="223" r="92" fill="hsl(327 65% 50%)" opacity="0.32"/><circle cx="136" cy="179" r="118" fill="hsl(60 84% 50%)" opacity="0.32"/><circle cx="619" cy="802" r="141" fill="hsl(153 68% 54%)" opacity="0.42"/>
<path d="M40 760 Q372 697 704 760 L704 1010 L40 1010 Z" fill="hsl(153 68% 54%)" opacity="0.5"/>
<rect x="70" y="850" width="14" height="127" fill="hsl(327 65% 50%)" opacity="0.55"/><rect x="90" y="840" width="14" height="84" fill="hsl(327 65% 50%)" opacity="0.55"/><rect x="110" y="830" width="14" height="73" fill="hsl(327 65% 50%)" opacity="0.55"/><rect x="130" y="820" width="14" height="70" fill="hsl(327 65% 50%)" opacity="0.55"/><rect x="150" y="810" width="14" height="100" fill="hsl(327 65% 50%)" opacity="0.55"/><rect x="170" y="800" width="14" height="92" fill="hsl(327 65% 50%)" opacity="0.55"/><rect x="190" y="790" width="14" height="75" fill="hsl(327 65% 50%)" opacity="0.55"/><rect x="210" y="780" width="14" height="101" fill="hsl(327 65% 50%)" opacity="0.55"/><rect x="230" y="770" width="14" height="122" fill="hsl(327 65% 50%)" opacity="0.55"/><rect x="250" y="760" width="14" height="98" fill="hsl(327 65% 50%)" opacity="0.55"/><rect x="270" y="750" width="14" height="122" fill="hsl(327 65% 50%)" opacity="0.55"/><rect x="290" y="740" width="14" height="113" fill="hsl(327 65% 50%)" opacity="0.55"/><rect x="310" y="730" width="14" height="125" fill="hsl(327 65% 50%)" opacity="0.55"/><rect x="330" y="720" width="14" height="128" fill="hsl(327 65% 50%)" opacity="0.55"/><rect x="350" y="710" width="14" height="99" fill="hsl(327 65% 50%)" opacity="0.55"/><rect x="370" y="700" width="14" height="122" fill="hsl(327 65% 50%)" opacity="0.55"/>
<text x="372" y="90" text-anchor="middle" fill="#ffffff" font-size="44" font-family="Verdana">Protocole Escouade Sigma</text>
<text x="372" y="980" text-anchor="middle" fill="#f3f3f3" font-size="26" font-family="Verdana">Coalition Humaine • P-009</text>
</svg>