<svg xmlns="http://www.w3.org/2000/svg" width="744" height="1039" viewBox="0 0 744 1039">
<defs><linearGradient id="g" x1="0" x2="1" y1="0" y2="1"><stop offset="0" stop-color="hsl(265 87% 34%)"/><stop offset="1" stop-color="hsl(288 88% 43%)"/></linearGradient></defs>
<rect width="744" height="1039" fill="#080b14"/>
<rect x="20" y="20" width="704" height="999" rx="28" fill="url(#g)"/>
<circle cx="178" cy="488" r="61" fill="hsl(265 87% 34%)" opacity="0.25"/><circle cx="116" cy="226" r="83" fill="hsl(288 88% 43%)" opacity="0.36"/><circle cx="278" cy="375" r="46" fill="hsl(158 66% 51%)" opacity="0.23"/><circle cx="441" cy="795" r="41" fill="hsl(265 87% 34%)" opacity="0.26"/><circle cx="254" cy="139" r="97" fill="hsl(288 88% 43%)" opacity="0.17"/>
<path d="M40 760 Q372 648 704 760 L704 1010 L40 1010 Z" fill="hsl(288 88% 43%)" opacity="0.5"/>
<rect x="70" y="850" width="14" height="78" fill="hsl(158 66% 51%)" opacity="0.55"/><rect x="90" y="840" width="14" height="72" fill="hsl(158 66% 51%)" opacity="0.55"/><rect x="110" y="830" width="14" height="85" fill="hsl(158 66% 51%)" opacity="0.55"/><rect x="130" y="820" width="14" height="103" fill="hsl(158 66% 51%)" opacity="0.55"/><rect x="150" y="810" width="14" height="123" fill="hsl(158 66% 51%)" opacity="0.55"/><rect x="170" y="800" width="14" height="83" fill="hsl(158 66% 51%)" opacity="0.55"/><rect x="190" y="790" width="14" height="103" fill="hsl(158 66% 51%)" opacity="0.55"/><rect x="210" y="780" width="14" height="78" fill="hsl(158 66% 51%)" opacity="0.55"/><rect x="230" y="770" width="14" height="117" fill="hsl(158 66% 51%)" opacity="0.55"/><rect x="250" y="760" width="14" height="81" fill="hsl(158 66% 51%)" opacity="0.55"/><rect x="270" y="750" width="14" height="72" fill="hsl(158 66% 51%)" opacity="0.55"/><rect x="290" y="740" width="14" height="85" fill="hsl(158 66% 51%)" opacity="0.55"/><rect x="310" y="730" width="14" height="103" fill="hsl(158 66% 51%)" opacity="0.55"/><rect x="330" y="720" width="14" height="108" fill="hsl(158 66% 51%)" opacity="0.55"/><rect x="350" y="710" width="14" height="94" fill="hsl(158 66% 51%)" opacity="0.55"/><rect x="370" y="700" width="14" height="91" fill="hsl(158 66% 51%)" opacity="0.55"/>
<text x="372" y="90" text-anchor="middle" fill="#ffffff" font-size="44" font-family="Verdana">Protocole Section de Fer</text>
<text x="372" y="980" text-anchor="middle" fill="#f3f3f3" font-size="26" font-family="Verdana">Coalition Humaine • P-005</text>
</svg>