<svg xmlns="http://www.w3.org/2000/svg" width="744" height="1039" viewBox="0 0 744 1039">
<defs><linearGradient id="g" x1="0" x2="1" y1="0" y2="1"><stop offset="0" stop-color="hsl(305 72% 56%)"/><stop offset="1" stop-color="hsl(199 82% 41%)"/></linearGradient></defs>
<rect width="744" height="1039" fill="#080b14"/>
<rect x="20" y="20" width="704" height="999" rx="28" fill="url(#g)"/>
<circle cx="144" cy="174" r="96" fill="hsl(305 72% 56%)" opacity="0.23"/><circle cx="116" cy="866" r="43" fill="hsl(199 82% 41%)" opacity="0.36"/><circle cx="418" cy="151" r="86" fill="hsl(218 87% 44%)" opacity="0.23"/><circle cx="153" cy="366" r="140" fill="hsl(305 72% 56%)" opacity="0.26"/><circle cx="615" cy="367" r="85" fill="hsl(199 82% 41%)" opacity="0.12"/>
<path d="M40 760 Q372 694 704 760 L704 1010 L40 1010 Z" fill="hsl(199 82% 41%)" opacity="0.5"/>
<rect x="70" y="850" width="14" height="124" fill="hsl(218 87% 44%)" opacity="0.55"/><rect x="90" y="840" width="14" height="83" fill="hsl(218 87% 44%)" opacity="0.55"/><rect x="110" y="830" width="14" height="103" fill="hsl(218 87% 44%)" opacity="0.55"/><rect x="130" y="820" width="14" height="123" fill="hsl(218 87% 44%)" opacity="0.55"/><rect x="150" y="810" width="14" height="83" fill="hsl(218 87% 44%)" opacity="0.55"/><rect x="170" y="800" width="14" height="103" fill="hsl(218 87% 44%)" opacity="0.55"/><rect x="190" y="790" width="14" height="123" fill="hsl(218 87% 44%)" opacity="0.55"/><rect x="210" y="780" width="14" height="98" fill="hsl(218 87% 44%)" opacity="0.55"/><rect x="230" y="770" width="14" height="92" fill="hsl(218 87% 44%)" opacity="0.55"/><rect x="250" y="760" width="14" height="120" fill="hsl(218 87% 44%)" opacity="0.55"/><rect x="270" y="750" width="14" height="97" fill="hsl(218 87% 44%)" opacity="0.55"/><rect x="290" y="740" width="14" height="121" fill="hsl(218 87% 44%)" opacity="0.55"/><rect x="310" y="730" width="14" height="97" fill="hsl(218 87% 44%)" opacity="0.55"/><rect x="330" y="720" width="14" height="91" fill="hsl(218 87% 44%)" opacity="0.55"/><rect x="350" y="710" width="14" height="75" fill="hsl(218 87% 44%)" opacity="0.55"/><rect x="370" y="700" width="14" height="101" fill="hsl(218 87% 44%)" opacity="0.55"/>
<text x="372" y="90" text-anchor="middle" fill="#ffffff" font-size="44" font-family="Verdana">Protocole Ligne de l'Aube</text>
<text x="372" y="980" text-anchor="middle" fill="#f3f3f3" font-size="26" font-family="Verdana">Coalition Humaine • P-007</text>
</svg>