<svg xmlns="http://www.w3.org/2000/svg" width="744" height="1039" viewBox="0 0 744 1039">
<defs><linearGradient id="g" x1="0" x2="1" y1="0" y2="1"><stop offset="0" stop-color="hsl(186 70% 48%)"/><stop offset="1" stop-color="hsl(170 71% 42%)"/></linearGradient></defs>
<rect width="744" height="1039" fill="#080b14"/>
<rect x="20" y="20" width="704" height="999" rx="28" fill="url(#g)"/>
<circle cx="311" cy="221" r="127" fill="hsl(186 70% 48%)" opacity="0.38"/><circle cx="358" cy="156" r="44" fill="hsl(170 71% 42%)" opacity="0.38"/><circle cx="214" cy="562" r="79" fill="hsl(156 88% 54%)" opacity="0.43"/><circle cx="414" cy="644" r="147" fill="hsl(186 70% 48%)" opacity="0.19"/><circle cx="464" cy="586" r="131" fill="hsl(170 71% 42%)" opacity="0.41"/>
<path d="M40 760 Q372 701 704 760 L704 1010 L40 1010 Z" fill="hsl(170 71% 42%)" opacity="0.5"/>
<rect x="70" y="850" width="14" height="71" fill="hsl(156 88% 54%)" opacity="0.55"/><rect x="90" y="840" width="14" height="85" fill="hsl(156 88% 54%)" opacity="0.55"/><rect x="110" y="830" width="14" height="118" fill="hsl(156 88% 54%)" opacity="0.55"/><rect x="130" y="820" width="14" height="127" fill="hsl(156 88% 54%)" opacity="0.55"/><rect x="150" y="810" width="14" height="84" fill="hsl(156 88% 54%)" opacity="0.55"/><rect x="170" y="800" width="14" height="103" fill="hsl(156 88% 54%)" opacity="0.55"/><rect x="190" y="790" width="14" height="108" fill="hsl(156 88% 54%)" opacity="0.55"/><rect x="210" y="780" width="14" height="94" fill="hsl(156 88% 54%)" opacity="0.55"/><rect x="230" y="770" width="14" height="121" fill="hsl(156 88% 54%)" opacity="0.55"/><rect x="250" y="760" width="14" height="127" fill="hsl(156 88% 54%)" opacity="0.55"/><rect x="270" y="750" width="14" height="99" fill="hsl(156 88% 54%)" opacity="0.55"/><rect x="290" y="740" width="14" height="92" fill="hsl(156 88% 54%)" opacity="0.55"/><rect x="310" y="730" width="14" height="120" fill="hsl(156 88% 54%)" opacity="0.55"/><rect x="330" y="720" width="14" height="127" fill="hsl(156 88% 54%)" opacity="0.55"/><rect x="350" y="710" width="14" height="84" fill="hsl(156 88% 54%)" opacity="0.55"/><rect x="370" y="700" width="14" height="103" fill="hsl(156 88% 54%)" opacity="0.55"/>
<text x="372" y="90" text-anchor="middle" fill="#ffffff" font-size="44" font-family="Verdana">Protocole Convoi du Cratère</text>
<text x="372" y="980" text-anchor="middle" fill="#f3f3f3" font-size="26" font-family="Verdana">Coalition Humaine • P-016</text>
</svg>