<svg xmlns="http://www.w3.org/2000/svg" width="744" height="1039" viewBox="0 0 744 1039">
<defs><linearGradient id="g" x1="0" x2="1" y1="0" y2="1"><stop offset="0" stop-color="hsl(144 56% 38%)"/><stop offset="1" stop-color="hsl(224 68% 59%)"/></linearGradient></defs>
<rect width="744" height="1039" fill="#080b14"/>
<rect x="20" y="20" width="704" height="999" rx="28" fill="url(#g)"/>
<circle cx="530" cy="640" r="65" fill="hsl(144 56% 38%)" opacity="0.47"/><circle cx="504" cy="555" r="117" fill="hsl(224 68% 59%)" opacity="0.24"/><circle cx="119" cy="800" r="88" fill="hsl(206 76% 56%)" opacity="0.41"/><circle cx="330" cy="686" r="76" fill="hsl(144 56% 38%)" opacity="0.28"/><circle cx="393" cy="566" r="110" fill="hsl(224 68% 59%)" opacity="0.37"/>
<path d="M40 760 Q372 680 704 760 L704 1010 L40 1010 Z" fill="hsl(224 68% 59%)" opacity="0.5"/>
<rect x="70" y="850" width="14" height="110" fill="hsl(206 76% 56%)" opacity="0.55"/><rect x="90" y="840" width="14" height="80" fill="hsl(206 76% 56%)" opacity="0.55"/><rect x="110" y="830" width="14" height="87" fill="hsl(206 76% 56%)" opacity="0.55"/><rect x="130" y="820" width="14" height="119" fill="hsl(206 76% 56%)" opacity="0.55"/><rect x="150" y="810" width="14" height="97" fill="hsl(206 76% 56%)" opacity="0.55"/><rect x="170" y="800" width="14" height="121" fill="hsl(206 76% 56%)" opacity="0.55"/><rect x="190" y="790" width="14" height="127" fill="hsl(206 76% 56%)" opacity="0.55"/><rect x="210" y="780" width="14" height="99" fill="hsl(206 76% 56%)" opacity="0.55"/><rect x="230" y="770" width="14" height="77" fill="hsl(206 76% 56%)" opacity="0.55"/><rect x="250" y="760" width="14" height="116" fill="hsl(206 76% 56%)" opacity="0.55"/><rect x="270" y="750" width="14" height="111" fill="hsl(206 76% 56%)" opacity="0.55"/><rect x="290" y="740" width="14" height="110" fill="hsl(206 76% 56%)" opacity="0.55"/><rect x="310" y="730" width="14" height="110" fill="hsl(206 76% 56%)" opacity="0.55"/><rect x="330" y="720" width="14" height="125" fill="hsl(206 76% 56%)" opacity="0.55"/><rect x="350" y="710" width="14" height="113" fill="hsl(206 76% 56%)" opacity="0.55"/><rect x="370" y="700" width="14" height="125" fill="hsl(206 76% 56%)" opacity="0.55"/>
<text x="372" y="90" text-anchor="middle" fill="#ffffff" font-size="44" font-family="Verdana">Protocole Sentinelle du Dernier Mur</text>
<text x="372" y="980" text-anchor="middle" fill="#f3f3f3" font-size="26" font-family="Verdana">Coalition Humaine • P-014</text>
</svg>