<svg xmlns="http://www.w3.org/2000/svg" width="744" height="1039" viewBox="0 0 744 1039">
<defs><linearGradient id="g" x1="0" x2="1" y1="0" y2="1"><stop offset="0" stop-color="hsl(201 76% 45%)"/><stop offset="1" stop-color="hsl(10 64% 49%)"/></linearGradient></defs>
<rect width="744" height="1039" fill="#080b14"/>
<rect x="20" y="20" width="704" height="999" rx="28" fill="url(#g)"/>
<circle cx="561" cy="151" r="38" fill="hsl(201 76% 45%)" opacity="0.14"/><circle cx="535" cy="337" r="52" fill="hsl(10 64% 49%)" opacity="0.15"/><circle cx="242" cy="536" r="94" fill="hsl(343 75% 49%)" opacity="0.45"/><circle cx="283" cy="851" r="99" fill="hsl(201 76% 45%)" opacity="0.34"/><circle cx="542" cy="299" r="58" fill="hsl(10 64% 49%)" opacity="0.48"/>
<path d="M40 760 Q372 711 704 760 L704 1010 L40 1010 Z" fill="hsl(10 64% 49%)" opacity="0.5"/>
<rect x="70" y="850" width="14" height="81" fill="hsl(343 75% 49%)" opacity="0.55"/><rect x="90" y="840" width="14" height="87" fill="hsl(343 75% 49%)" opacity="0.55"/><rect x="110" y="830" width="14" height="74" fill="hsl(343 75% 49%)" opacity="0.55"/><rect x="130" y="820" width="14" height="101" fill="hsl(343 75% 49%)" opacity="0.55"/><rect x="150" y="810" width="14" height="92" fill="hsl(343 75% 49%)" opacity="0.55"/><rect x="170" y="800" width="14" height="105" fill="hsl(343 75% 49%)" opacity="0.55"/><rect x="190" y="790" width="14" height="78" fill="hsl(343 75% 49%)" opacity="0.55"/><rect x="210" y="780" width="14" height="102" fill="hsl(343 75% 49%)" opacity="0.55"/><rect x="230" y="770" width="14" height="108" fill="hsl(343 75% 49%)" opacity="0.55"/><rect x="250" y="760" width="14" height="79" fill="hsl(343 75% 49%)" opacity="0.55"/><rect x="270" y="750" width="14" height="117" fill="hsl(343 75% 49%)" opacity="0.55"/><rect x="290" y="740" width="14" height="126" fill="hsl(343 75% 49%)" opacity="0.55"/><rect x="310" y="730" width="14" height="84" fill="hsl(343 75% 49%)" opacity="0.55"/><rect x="330" y="720" width="14" height="118" fill="hsl(343 75% 49%)" opacity="0.55"/><rect x="350" y="710" width="14" height="82" fill="hsl(343 75% 49%)" opacity="0.55"/><rect x="370" y="700" width="14" height="103" fill="hsl(343 75% 49%)" opacity="0.55"/>
<text x="372" y="90" text-anchor="middle" fill="#ffffff" font-size="44" font-family="Verdana">Protocole Avant-garde Oméga</text>
<text x="372" y="980" text-anchor="middle" fill="#f3f3f3" font-size="26" font-family="Verdana">Coalition Humaine • P-020</text>
</svg>