<svg xmlns="http://www.w3.org/2000/svg" width="744" height="1039" viewBox="0 0 744 1039">
<defs><linearGradient id="g" x1="0" x2="1" y1="0" y2="1"><stop offset="0" stop-color="hsl(100 81% 49%)"/><stop offset="1" stop-color="hsl(236 67% 53%)"/></linearGradient></defs>
<rect width="744" height="1039" fill="#080b14"/>
<rect x="20" y="20" width="704" height="999" rx="28" fill="url(#g)"/>
<circle cx="627" cy="217" r="47" fill="hsl(100 81% 49%)" opacity="0.38"/><circle cx="588" cy="406" r="79" fill="hsl(236 67% 53%)" opacity="0.28"/><circle cx="185" cy="566" r="61" fill="hsl(293 55% 59%)" opacity="0.22"/><circle cx="103" cy="458" r="60" fill="hsl(100 81% 49%)" opacity="0.41"/><circle cx="195" cy="178" r="113" fill="hsl(236 67% 53%)" opacity="0.13"/>
<path d="M40 760 Q372 657 704 760 L704 1010 L40 1010 Z" fill="hsl(236 67% 53%)" opacity="0.5"/>
<rect x="70" y="850" width="14" height="87" fill="hsl(293 55% 59%)" opacity="0.55"/><rect x="90" y="840" width="14" height="104" fill="hsl(293 55% 59%)" opacity="0.55"/><rect x="110" y="830" width="14" height="78" fill="hsl(293 55% 59%)" opacity="0.55"/><rect x="130" y="820" width="14" height="87" fill="hsl(293 55% 59%)" opacity="0.55"/><rect x="150" y="810" width="14" height="119" fill="hsl(293 55% 59%)" opacity="0.55"/><rect x="170" y="800" width="14" height="82" fill="hsl(293 55% 59%)" opacity="0.55"/><rect x="190" y="790" width="14" height="73" fill="hsl(293 55% 59%)" opacity="0.55"/><rect x="210" y="780" width="14" height="85" fill="hsl(293 55% 59%)" opacity="0.55"/><rect x="230" y="770" width="14" height="73" fill="hsl(293 55% 59%)" opacity="0.55"/><rect x="250" y="760" width="14" height="100" fill="hsl(293 55% 59%)" opacity="0.55"/><rect x="270" y="750" width="14" height="77" fill="hsl(293 55% 59%)" opacity="0.55"/><rect x="290" y="740" width="14" height="116" fill="hsl(293 55% 59%)" opacity="0.55"/><rect x="310" y="730" width="14" height="111" fill="hsl(293 55% 59%)" opacity="0.55"/><rect x="330" y="720" width="14" height="110" fill="hsl(293 55% 59%)" opacity="0.55"/><rect x="350" y="710" width="14" height="95" fill="hsl(293 55% 59%)" opacity="0.55"/><rect x="370" y="700" width="14" height="76" fill="hsl(293 55% 59%)" opacity="0.55"/>
<text x="372" y="90" text-anchor="middle" fill="#ffffff" font-size="44" font-family="Verdana">Escouade de l'Arc Rouge</text>
<text x="372" y="980" text-anchor="middle" fill="#f3f3f3" font-size="26" font-family="Verdana">Coalition Humaine • U-002</text>
</svg>