<svg xmlns="http://www.w3.org/2000/svg" width="744" height="1039" viewBox="0 0 744 1039">
<defs><linearGradient id="g" x1="0" x2="1" y1="0" y2="1"><stop offset="0" stop-color="hsl(288 62% 43%)"/><stop offset="1" stop-color="hsl(302 55% 41%)"/></linearGradient></defs>
<rect width="744" height="1039" fill="#080b14"/>
<rect x="20" y="20" width="704" height="999" rx="28" fill="url(#g)"/>
<circle cx="158" cy="868" r="58" fill="hsl(288 62% 43%)" opacity="0.24"/><circle cx="606" cy="352" r="128" fill="hsl(302 55% 41%)" opacity="0.46"/><circle cx="269" cy="509" r="108" fill="hsl(60 73% 53%)" opacity="0.34"/><circle cx="629" cy="804" r="66" fill="hsl(288 62% 43%)" opacity="0.48"/><circle cx="553" cy="174" r="64" fill="hsl(302 55% 41%)" opacity="0.34"/>
<path d="M40 760 Q372 748 704 760 L704 1010 L40 1010 Z" fill="hsl(302 55% 41%)" opacity="0.5"/>
<rect x="70" y="850" width="14" height="118" fill="hsl(60 73% 53%)" opacity="0.55"/><rect x="90" y="840" width="14" height="127" fill="hsl(60 73% 53%)" opacity="0.55"/><rect x="110" y="830" width="14" height="84" fill="hsl(60 73% 53%)" opacity="0.55"/><rect x="130" y="820" width="14" height="103" fill="hsl(60 73% 53%)" opacity="0.55"/><rect x="150" y="810" width="14" height="108" fill="hsl(60 73% 53%)" opacity="0.55"/><rect x="170" y="800" width="14" height="94" fill="hsl(60 73% 53%)" opacity="0.55"/><rect x="190" y="790" width="14" height="106" fill="hsl(60 73% 53%)" opacity="0.55"/><rect x="210" y="780" width="14" height="109" fill="hsl(60 73% 53%)" opacity="0.55"/><rect x="230" y="770" width="14" height="94" fill="hsl(60 73% 53%)" opacity="0.55"/><rect x="250" y="760" width="14" height="106" fill="hsl(60 73% 53%)" opacity="0.55"/><rect x="270" y="750" width="14" height="109" fill="hsl(60 73% 53%)" opacity="0.55"/><rect x="290" y="740" width="14" height="79" fill="hsl(60 73% 53%)" opacity="0.55"/><rect x="310" y="730" width="14" height="87" fill="hsl(60 73% 53%)" opacity="0.55"/><rect x="330" y="720" width="14" height="104" fill="hsl(60 73% 53%)" opacity="0.55"/><rect x="350" y="710" width="14" height="93" fill="hsl(60 73% 53%)" opacity="0.55"/><rect x="370" y="700" width="14" height="105" fill="hsl(60 73% 53%)" opacity="0.55"/>
<text x="372" y="90" text-anchor="middle" fill="#ffffff" font-size="44" font-family="Verdana">Sentinelle du Cratère</text>
<text x="372" y="980" text-anchor="middle" fill="#f3f3f3" font-size="26" font-family="Verdana">Coalition Humaine • U-007</text>
</svg>