<svg xmlns="http://www.w3.org/2000/svg" width="744" height="1039" viewBox="0 0 744 1039">
<defs><linearGradient id="g" x1="0" x2="1" y1="0" y2="1"><stop offset="0" stop-color="hsl(43 79% 55%)"/><stop offset="1" stop-color="hsl(33 62% 53%)"/></linearGradient></defs>
<rect width="744" height="1039" fill="#080b14"/>
<rect x="20" y="20" width="704" height="999" rx="28" fill="url(#g)"/>
<circle cx="272" cy="862" r="122" fill="hsl(43 79% 55%)" opacity="0.16"/><circle cx="585" cy="725" r="77" fill="hsl(33 62% 53%)" opacity="0.25"/><circle cx="290" cy="269" r="31" fill="hsl(204 56% 48%)" opacity="0.21"/><circle cx="629" cy="422" r="67" fill="hsl(43 79% 55%)" opacity="0.11"/><circle cx="422" cy="340" r="64" fill="hsl(33 62% 53%)" opacity="0.40"/>
<path d="M40 760 Q372 662 704 760 L704 1010 L40 1010 Z" fill="hsl(33 62% 53%)" opacity="0.5"/>
<rect x="70" y="850" width="14" height="92" fill="hsl(204 56% 48%)" opacity="0.55"/><rect x="90" y="840" width="14" height="75" fill="hsl(204 56% 48%)" opacity="0.55"/><rect x="110" y="830" width="14" height="116" fill="hsl(204 56% 48%)" opacity="0.55"/><rect x="130" y="820" width="14" height="81" fill="hsl(204 56% 48%)" opacity="0.55"/><rect x="150" y="810" width="14" height="117" fill="hsl(204 56% 48%)" opacity="0.55"/><rect x="170" y="800" width="14" height="81" fill="hsl(204 56% 48%)" opacity="0.55"/><rect x="190" y="790" width="14" height="72" fill="hsl(204 56% 48%)" opacity="0.55"/><rect x="210" y="780" width="14" height="70" fill="hsl(204 56% 48%)" opacity="0.55"/><rect x="230" y="770" width="14" height="100" fill="hsl(204 56% 48%)" opacity="0.55"/><rect x="250" y="760" width="14" height="107" fill="hsl(204 56% 48%)" opacity="0.55"/><rect x="270" y="750" width="14" height="109" fill="hsl(204 56% 48%)" opacity="0.55"/><rect x="290" y="740" width="14" height="79" fill="hsl(204 56% 48%)" opacity="0.55"/><rect x="310" y="730" width="14" height="87" fill="hsl(204 56% 48%)" opacity="0.55"/><rect x="330" y="720" width="14" height="119" fill="hsl(204 56% 48%)" opacity="0.55"/><rect x="350" y="710" width="14" height="82" fill="hsl(204 56% 48%)" opacity="0.55"/><rect x="370" y="700" width="14" height="73" fill="hsl(204 56% 48%)" opacity="0.55"/>
<text x="372" y="90" text-anchor="middle" fill="#ffffff" font-size="44" font-family="Verdana">Section Sigma</text>
<text x="372" y="980" text-anchor="middle" fill="#f3f3f3" font-size="26" font-family="Verdana">Coalition Humaine • U-008</text>
</svg>