<svg xmlns="http://www.w3.org/2000/svg" width="744" height="1039" viewBox="0 0 744 1039">
<defs><linearGradient id="g" x1="0" x2="1" y1="0" y2="1"><stop offset="0" stop-color="hsl(91 73% 58%)"/><stop offset="1" stop-color="hsl(105 71% 37%)"/></linearGradient></defs>
<rect width="744" height="1039" fill="#080b14"/>
<rect x="20" y="20" width="704" height="999" rx="28" fill="url(#g)"/>
<circle cx="314" cy="784" r="108" fill="hsl(91 73% 58%)" opacity="0.49"/><circle cx="524" cy="217" r="47" fill="hsl(105 71% 37%)" opacity="0.44"/><circle cx="557" cy="319" r="124" fill="hsl(358 84% 57%)" opacity="0.44"/><circle cx="408" cy="570" r="59" fill="hsl(91 73% 58%)" opacity="0.24"/><circle cx="337" cy="459" r="109" fill="hsl(105 71% 37%)" opacity="0.46"/>
<path d="M40 760 Q372 664 704 760 L704 1010 L40 1010 Z" fill="hsl(105 71% 37%)" opacity="0.5"/>
<rect x="70" y="850" width="14" height="94" fill="hsl(358 84% 57%)" opacity="0.55"/><rect x="90" y="840" width="14" height="106" fill="hsl(358 84% 57%)" opacity="0.55"/><rect x="110" y="830" width="14" height="109" fill="hsl(358 84% 57%)" opacity="0.55"/><rect x="130" y="820" width="14" height="79" fill="hsl(358 84% 57%)" opacity="0.55"/><rect x="150" y="810" width="14" height="87" fill="hsl(358 84% 57%)" opacity="0.55"/><rect x="170" y="800" width="14" height="104" fill="hsl(358 84% 57%)" opacity="0.55"/><rect x="190" y="790" width="14" height="78" fill="hsl(358 84% 57%)" opacity="0.55"/><rect x="210" y="780" width="14" height="117" fill="hsl(358 84% 57%)" opacity="0.55"/><rect x="230" y="770" width="14" height="126" fill="hsl(358 84% 57%)" opacity="0.55"/><rect x="250" y="760" width="14" height="99" fill="hsl(358 84% 57%)" opacity="0.55"/><rect x="270" y="750" width="14" height="107" fill="hsl(358 84% 57%)" opacity="0.55"/><rect x="290" y="740" width="14" height="109" fill="hsl(358 84% 57%)" opacity="0.55"/><rect x="310" y="730" width="14" height="109" fill="hsl(358 84% 57%)" opacity="0.55"/><rect x="330" y="720" width="14" height="79" fill="hsl(358 84% 57%)" opacity="0.55"/><rect x="350" y="710" width="14" height="117" fill="hsl(358 84% 57%)" opacity="0.55"/><rect x="370" y="700" width="14" height="111" fill="hsl(358 84% 57%)" opacity="0.55"/>
<text x="372" y="90" text-anchor="middle" fill="#ffffff" font-size="44" font-family="Verdana">Compagnie de l'Aube</text>
<text x="372" y="980" text-anchor="middle" fill="#f3f3f3" font-size="26" font-family="Verdana">Coalition Humaine • U-004</text>
</svg>