<svg xmlns="http://www.w3.org/2000/svg" width="744" height="1039" viewBox="0 0 744 1039">
<defs><linearGradient id="g" x1="0" x2="1" y1="0" y2="1"><stop offset="0" stop-color="hsl(285 55% 34%)"/><stop offset="1" stop-color="hsl(158 56% 45%)"/></linearGradient></defs>
<rect width="744" height="1039" fill="#080b14"/>
<rect x="20" y="20" width="704" height="999" rx="28" fill="url(#g)"/>
<circle cx="378" cy="648" r="126" fill="hsl(285 55% 34%)" opacity="0.38"/><circle cx="328" cy="794" r="149" fill="hsl(158 56% 45%)" opacity="0.48"/><circle cx="529" cy="659" r="108" fill="hsl(216 72% 35%)" opacity="0.39"/><circle cx="369" cy="431" r="62" fill="hsl(285 55% 34%)" opacity="0.48"/><circle cx="529" cy="559" r="139" fill="hsl(158 56% 45%)" opacity="0.19"/>
<path d="M40 760 Q372 688 704 760 L704 1010 L40 1010 Z" fill="hsl(158 56% 45%)" opacity="0.5"/>
<rect x="70" y="850" width="14" height="118" fill="hsl(216 72% 35%)" opacity="0.55"/><rect x="90" y="840" width="14" height="82" fill="hsl(216 72% 35%)" opacity="0.55"/><rect x="110" y="830" width="14" height="118" fill="hsl(216 72% 35%)" opacity="0.55"/><rect x="130" y="820" width="14" height="127" fill="hsl(216 72% 35%)" opacity="0.55"/><rect x="150" y="810" width="14" height="129" fill="hsl(216 72% 35%)" opacity="0.55"/><rect x="170" y="800" width="14" height="99" fill="hsl(216 72% 35%)" opacity="0.55"/><rect x="190" y="790" width="14" height="107" fill="hsl(216 72% 35%)" opacity="0.55"/><rect x="210" y="780" width="14" height="109" fill="hsl(216 72% 35%)" opacity="0.55"/><rect x="230" y="770" width="14" height="79" fill="hsl(216 72% 35%)" opacity="0.55"/><rect x="250" y="760" width="14" height="102" fill="hsl(216 72% 35%)" opacity="0.55"/><rect x="270" y="750" width="14" height="108" fill="hsl(216 72% 35%)" opacity="0.55"/><rect x="290" y="740" width="14" height="109" fill="hsl(216 72% 35%)" opacity="0.55"/><rect x="310" y="730" width="14" height="124" fill="hsl(216 72% 35%)" opacity="0.55"/><rect x="330" y="720" width="14" height="128" fill="hsl(216 72% 35%)" opacity="0.55"/><rect x="350" y="710" width="14" height="129" fill="hsl(216 72% 35%)" opacity="0.55"/><rect x="370" y="700" width="14" height="99" fill="hsl(216 72% 35%)" opacity="0.55"/>
<text x="372" y="90" text-anchor="middle" fill="#ffffff" font-size="44" font-family="Verdana">Convoi de la Trêve Brisée</text>
<text x="372" y="980" text-anchor="middle" fill="#f3f3f3" font-size="26" font-family="Verdana">Coalition Humaine • U-009</text>
</svg>