<svg xmlns="http://www.w3.org/2000/svg" width="744" height="1039" viewBox="0 0 744 1039">
<defs><linearGradient id="g" x1="0" x2="1" y1="0" y2="1"><stop offset="0" stop-color="hsl(335 62% 54%)"/><stop offset="1" stop-color="hsl(289 65% 42%)"/></linearGradient></defs>
<rect width="744" height="1039" fill="#080b14"/>
<rect x="20" y="20" width="704" height="999" rx="28" fill="url(#g)"/>
<circle cx="495" cy="525" r="40" fill="hsl(335 62% 54%)" opacity="0.15"/><circle cx="215" cy="532" r="52" fill="hsl(289 65% 42%)" opacity="0.15"/><circle cx="121" cy="501" r="53" fill="hsl(172 71% 53%)" opacity="0.35"/><circle cx="453" cy="247" r="56" fill="hsl(335 62% 54%)" opacity="0.33"/><circle cx="237" cy="212" r="60" fill="hsl(289 65% 42%)" opacity="0.37"/>
<path d="M40 760 Q372 725 704 760 L704 1010 L40 1010 Z" fill="hsl(289 65% 42%)" opacity="0.5"/>
<rect x="70" y="850" width="14" height="95" fill="hsl(172 71% 53%)" opacity="0.55"/><rect x="90" y="840" width="14" height="91" fill="hsl(172 71% 53%)" opacity="0.55"/><rect x="110" y="830" width="14" height="75" fill="hsl(172 71% 53%)" opacity="0.55"/><rect x="130" y="820" width="14" height="101" fill="hsl(172 71% 53%)" opacity="0.55"/><rect x="150" y="810" width="14" height="92" fill="hsl(172 71% 53%)" opacity="0.55"/><rect x="170" y="800" width="14" height="75" fill="hsl(172 71% 53%)" opacity="0.55"/><rect x="190" y="790" width="14" height="116" fill="hsl(172 71% 53%)" opacity="0.55"/><rect x="210" y="780" width="14" height="81" fill="hsl(172 71% 53%)" opacity="0.55"/><rect x="230" y="770" width="14" height="117" fill="hsl(172 71% 53%)" opacity="0.55"/><rect x="250" y="760" width="14" height="96" fill="hsl(172 71% 53%)" opacity="0.55"/><rect x="270" y="750" width="14" height="76" fill="hsl(172 71% 53%)" opacity="0.55"/><rect x="290" y="740" width="14" height="71" fill="hsl(172 71% 53%)" opacity="0.55"/><rect x="310" y="730" width="14" height="85" fill="hsl(172 71% 53%)" opacity="0.55"/><rect x="330" y="720" width="14" height="118" fill="hsl(172 71% 53%)" opacity="0.55"/><rect x="350" y="710" width="14" height="97" fill="hsl(172 71% 53%)" opacity="0.55"/><rect x="370" y="700" width="14" height="106" fill="hsl(172 71% 53%)" opacity="0.55"/>
<text x="372" y="90" text-anchor="middle" fill="#ffffff" font-size="44" font-family="Verdana">Bastion des Dômes</text>
<text x="372" y="980" text-anchor="middle" fill="#f3f3f3" font-size="26" font-family="Verdana">Coalition Humaine • U-011</text>
</svg>