<svg xmlns="http://www.w3.org/2000/svg" width="744" height="1039" viewBox="0 0 744 1039">
<defs><linearGradient id="g" x1="0" x2="1" y1="0" y2="1"><stop offset="0" stop-color="hsl(202 63% 59%)"/><stop offset="1" stop-color="hsl(128 66% 40%)"/></linearGradient></defs>
<rect width="744" height="1039" fill="#080b14"/>
<rect x="20" y="20" width="704" height="999" rx="28" fill="url(#g)"/>
<circle cx="174" cy="484" r="70" fill="hsl(202 63% 59%)" opacity="0.30"/><circle cx="532" cy="347" r="91" fill="hsl(128 66% 40%)" opacity="0.12"/><circle cx="93" cy="675" r="76" fill="hsl(231 88% 35%)" opacity="0.25"/><circle cx="641" cy="685" r="80" fill="hsl(202 63% 59%)" opacity="0.16"/><circle cx="584" cy="157" r="87" fill="hsl(128 66% 40%)" opacity="0.10"/>
<path d="M40 760 Q372 724 704 760 L704 1010 L40 1010 Z" fill="hsl(128 66% 40%)" opacity="0.5"/>
<rect x="70" y="850" width="14" height="94" fill="hsl(231 88% 35%)" opacity="0.55"/><rect x="90" y="840" width="14" height="91" fill="hsl(231 88% 35%)" opacity="0.55"/><rect x="110" y="830" width="14" height="90" fill="hsl(231 88% 35%)" opacity="0.55"/><rect x="130" y="820" width="14" height="75" fill="hsl(231 88% 35%)" opacity="0.55"/><rect x="150" y="810" width="14" height="71" fill="hsl(231 88% 35%)" opacity="0.55"/><rect x="170" y="800" width="14" height="85" fill="hsl(231 88% 35%)" opacity="0.55"/><rect x="190" y="790" width="14" height="103" fill="hsl(231 88% 35%)" opacity="0.55"/><rect x="210" y="780" width="14" height="93" fill="hsl(231 88% 35%)" opacity="0.55"/><rect x="230" y="770" width="14" height="90" fill="hsl(231 88% 35%)" opacity="0.55"/><rect x="250" y="760" width="14" height="120" fill="hsl(231 88% 35%)" opacity="0.55"/><rect x="270" y="750" width="14" height="112" fill="hsl(231 88% 35%)" opacity="0.55"/><rect x="290" y="740" width="14" height="125" fill="hsl(231 88% 35%)" opacity="0.55"/><rect x="310" y="730" width="14" height="98" fill="hsl(231 88% 35%)" opacity="0.55"/><rect x="330" y="720" width="14" height="107" fill="hsl(231 88% 35%)" opacity="0.55"/><rect x="350" y="710" width="14" height="124" fill="hsl(231 88% 35%)" opacity="0.55"/><rect x="370" y="700" width="14" height="113" fill="hsl(231 88% 35%)" opacity="0.55"/>
<text x="372" y="90" text-anchor="middle" fill="#ffffff" font-size="44" font-family="Verdana">Phalange Oméga</text>
<text x="372" y="980" text-anchor="middle" fill="#f3f3f3" font-size="26" font-family="Verdana">Coalition Humaine • U-025</text>
</svg>