<svg xmlns="http://www.w3.org/2000/svg" width="744" height="1039" viewBox="0 0 744 1039">
<defs><linearGradient id="g" x1="0" x2="1" y1="0" y2="1"><stop offset="0" stop-color="hsl(246 80% 48%)"/><stop offset="1" stop-color="hsl(1 72% 49%)"/></linearGradient></defs>
<rect width="744" height="1039" fill="#080b14"/>
<rect x="20" y="20" width="704" height="999" rx="28" fill="url(#g)"/>
<circle cx="544" cy="854" r="36" fill="hsl(246 80% 48%)" opacity="0.13"/><circle cx="220" cy="318" r="135" fill="hsl(1 72% 49%)" opacity="0.20"/><circle cx="379" cy="876" r="89" fill="hsl(244 82% 51%)" opacity="0.46"/><circle cx="643" cy="831" r="58" fill="hsl(246 80% 48%)" opacity="0.29"/><circle cx="282" cy="194" r="68" fill="hsl(1 72% 49%)" opacity="0.42"/>
<path d="M40 760 Q372 694 704 760 L704 1010 L40 1010 Z" fill="hsl(1 72% 49%)" opacity="0.5"/>
<rect x="70" y="850" width="14" height="124" fill="hsl(244 82% 51%)" opacity="0.55"/><rect x="90" y="840" width="14" height="83" fill="hsl(244 82% 51%)" opacity="0.55"/><rect x="110" y="830" width="14" height="73" fill="hsl(244 82% 51%)" opacity="0.55"/><rect x="130" y="820" width="14" height="70" fill="hsl(244 82% 51%)" opacity="0.55"/><rect x="150" y="810" width="14" height="115" fill="hsl(244 82% 51%)" opacity="0.55"/><rect x="170" y="800" width="14" height="126" fill="hsl(244 82% 51%)" opacity="0.55"/><rect x="190" y="790" width="14" height="129" fill="hsl(244 82% 51%)" opacity="0.55"/><rect x="210" y="780" width="14" height="99" fill="hsl(244 82% 51%)" opacity="0.55"/><rect x="230" y="770" width="14" height="122" fill="hsl(244 82% 51%)" opacity="0.55"/><rect x="250" y="760" width="14" height="98" fill="hsl(244 82% 51%)" opacity="0.55"/><rect x="270" y="750" width="14" height="77" fill="hsl(244 82% 51%)" opacity="0.55"/><rect x="290" y="740" width="14" height="86" fill="hsl(244 82% 51%)" opacity="0.55"/><rect x="310" y="730" width="14" height="89" fill="hsl(244 82% 51%)" opacity="0.55"/><rect x="330" y="720" width="14" height="119" fill="hsl(244 82% 51%)" opacity="0.55"/><rect x="350" y="710" width="14" height="82" fill="hsl(244 82% 51%)" opacity="0.55"/><rect x="370" y="700" width="14" height="118" fill="hsl(244 82% 51%)" opacity="0.55"/>
<text x="372" y="90" text-anchor="middle" fill="#ffffff" font-size="44" font-family="Verdana">Ligne de Fer</text>
<text x="372" y="980" text-anchor="middle" fill="#f3f3f3" font-size="26" font-family="Verdana">Coalition Humaine • U-020</text>
</svg>