<svg xmlns="http://www.w3.org/2000/svg" width="744" height="1039" viewBox="0 0 744 1039">
<defs><linearGradient id="g" x1="0" x2="1" y1="0" y2="1"><stop offset="0" stop-color="hsl(335 62% 54%)"/><stop offset="1" stop-color="hsl(289 65% 42%)"/></linearGradient></defs>
<rect width="744" height="1039" fill="#080b14"/>
<rect x="20" y="20" width="704" height="999" rx="28" fill="url(#g)"/>
<circle cx="386" cy="816" r="137" fill="hsl(335 62% 54%)" opacity="0.43"/><circle cx="639" cy="169" r="104" fill="hsl(289 65% 42%)" opacity="0.39"/><circle cx="466" cy="855" r="62" fill="hsl(172 71% 53%)" opacity="0.28"/><circle cx="281" cy="754" r="38" fill="hsl(335 62% 54%)" opacity="0.42"/><circle cx="143" cy="670" r="37" fill="hsl(289 65% 42%)" opacity="0.44"/>
<path d="M40 760 Q372 656 704 760 L704 1010 L40 1010 Z" fill="hsl(289 65% 42%)" opacity="0.5"/>
<rect x="70" y="850" width="14" height="86" fill="hsl(172 71% 53%)" opacity="0.55"/><rect x="90" y="840" width="14" height="104" fill="hsl(172 71% 53%)" opacity="0.55"/><rect x="110" y="830" width="14" height="123" fill="hsl(172 71% 53%)" opacity="0.55"/><rect x="130" y="820" width="14" height="128" fill="hsl(172 71% 53%)" opacity="0.55"/><rect x="150" y="810" width="14" height="84" fill="hsl(172 71% 53%)" opacity="0.55"/><rect x="170" y="800" width="14" height="88" fill="hsl(172 71% 53%)" opacity="0.55"/><rect x="190" y="790" width="14" height="74" fill="hsl(172 71% 53%)" opacity="0.55"/><rect x="210" y="780" width="14" height="86" fill="hsl(172 71% 53%)" opacity="0.55"/><rect x="230" y="770" width="14" height="104" fill="hsl(172 71% 53%)" opacity="0.55"/><rect x="250" y="760" width="14" height="78" fill="hsl(172 71% 53%)" opacity="0.55"/><rect x="270" y="750" width="14" height="72" fill="hsl(172 71% 53%)" opacity="0.55"/><rect x="290" y="740" width="14" height="85" fill="hsl(172 71% 53%)" opacity="0.55"/><rect x="310" y="730" width="14" height="73" fill="hsl(172 71% 53%)" opacity="0.55"/><rect x="330" y="720" width="14" height="85" fill="hsl(172 71% 53%)" opacity="0.55"/><rect x="350" y="710" width="14" height="103" fill="hsl(172 71% 53%)" opacity="0.55"/><rect x="370" y="700" width="14" height="123" fill="hsl(172 71% 53%)" opacity="0.55"/>
<text x="372" y="90" text-anchor="middle" fill="#ffffff" font-size="44" font-family="Verdana">Bastion des Dômes</text>
<text x="372" y="980" text-anchor="middle" fill="#f3f3f3" font-size="26" font-family="Verdana">Coalition Humaine • U-031</text>
</svg>