<svg xmlns="http://www.w3.org/2000/svg" width="744" height="1039" viewBox="0 0 744 1039">
<defs><linearGradient id="g" x1="0" x2="1" y1="0" y2="1"><stop offset="0" stop-color="hsl(202 63% 59%)"/><stop offset="1" stop-color="hsl(128 66% 40%)"/></linearGradient></defs>
<rect width="744" height="1039" fill="#080b14"/>
<rect x="20" y="20" width="704" height="999" rx="28" fill="url(#g)"/>
<circle cx="476" cy="466" r="58" fill="hsl(202 63% 59%)" opacity="0.24"/><circle cx="346" cy="476" r="38" fill="hsl(128 66% 40%)" opacity="0.26"/><circle cx="459" cy="492" r="49" fill="hsl(231 88% 35%)" opacity="0.42"/><circle cx="114" cy="130" r="68" fill="hsl(202 63% 59%)" opacity="0.29"/><circle cx="256" cy="375" r="76" fill="hsl(128 66% 40%)" opacity="0.42"/>
<path d="M40 760 Q372 746 704 760 L704 1010 L40 1010 Z" fill="hsl(128 66% 40%)" opacity="0.5"/>
<rect x="70" y="850" width="14" height="116" fill="hsl(231 88% 35%)" opacity="0.55"/><rect x="90" y="840" width="14" height="126" fill="hsl(231 88% 35%)" opacity="0.55"/><rect x="110" y="830" width="14" height="84" fill="hsl(231 88% 35%)" opacity="0.55"/><rect x="130" y="820" width="14" height="103" fill="hsl(231 88% 35%)" opacity="0.55"/><rect x="150" y="810" width="14" height="78" fill="hsl(231 88% 35%)" opacity="0.55"/><rect x="170" y="800" width="14" height="102" fill="hsl(231 88% 35%)" opacity="0.55"/><rect x="190" y="790" width="14" height="108" fill="hsl(231 88% 35%)" opacity="0.55"/><rect x="210" y="780" width="14" height="79" fill="hsl(231 88% 35%)" opacity="0.55"/><rect x="230" y="770" width="14" height="102" fill="hsl(231 88% 35%)" opacity="0.55"/><rect x="250" y="760" width="14" height="108" fill="hsl(231 88% 35%)" opacity="0.55"/><rect x="270" y="750" width="14" height="79" fill="hsl(231 88% 35%)" opacity="0.55"/><rect x="290" y="740" width="14" height="102" fill="hsl(231 88% 35%)" opacity="0.55"/><rect x="310" y="730" width="14" height="93" fill="hsl(231 88% 35%)" opacity="0.55"/><rect x="330" y="720" width="14" height="75" fill="hsl(231 88% 35%)" opacity="0.55"/><rect x="350" y="710" width="14" height="116" fill="hsl(231 88% 35%)" opacity="0.55"/><rect x="370" y="700" width="14" height="111" fill="hsl(231 88% 35%)" opacity="0.55"/>
<text x="372" y="90" text-anchor="middle" fill="#ffffff" font-size="44" font-family="Verdana">Phalange Oméga</text>
<text x="372" y="980" text-anchor="middle" fill="#f3f3f3" font-size="26" font-family="Verdana">Coalition Humaine • U-035</text>
</svg>