<svg xmlns="http://www.w3.org/2000/svg" width="744" height="1039" viewBox="0 0 744 1039">
<defs><linearGradient id="g" x1="0" x2="1" y1="0" y2="1"><stop offset="0" stop-color="hsl(214 59% 45%)"/><stop offset="1" stop-color="hsl(6 81% 48%)"/></linearGradient></defs>
<rect width="744" height="1039" fill="#080b14"/>
<rect x="20" y="20" width="704" height="999" rx="28" fill="url(#g)"/>
<circle cx="320" cy="470" r="148" fill="hsl(214 59% 45%)" opacity="0.49"/><circle cx="524" cy="772" r="127" fill="hsl(6 81% 48%)" opacity="0.44"/><circle cx="491" cy="351" r="33" fill="hsl(140 85% 46%)" opacity="0.34"/><circle cx="473" cy="171" r="60" fill="hsl(214 59% 45%)" opacity="0.13"/><circle cx="132" cy="386" r="105" fill="hsl(6 81% 48%)" opacity="0.10"/>
<path d="M40 760 Q372 750 704 760 L704 1010 L40 1010 Z" fill="hsl(6 81% 48%)" opacity="0.5"/>
<rect x="70" y="850" width="14" height="120" fill="hsl(140 85% 46%)" opacity="0.55"/><rect x="90" y="840" width="14" height="127" fill="hsl(140 85% 46%)" opacity="0.55"/><rect x="110" y="830" width="14" height="129" fill="hsl(140 85% 46%)" opacity="0.55"/><rect x="130" y="820" width="14" height="99" fill="hsl(140 85% 46%)" opacity="0.55"/><rect x="150" y="810" width="14" height="107" fill="hsl(140 85% 46%)" opacity="0.55"/><rect x="170" y="800" width="14" height="94" fill="hsl(140 85% 46%)" opacity="0.55"/><rect x="190" y="790" width="14" height="76" fill="hsl(140 85% 46%)" opacity="0.55"/><rect x="210" y="780" width="14" height="71" fill="hsl(140 85% 46%)" opacity="0.55"/><rect x="230" y="770" width="14" height="70" fill="hsl(140 85% 46%)" opacity="0.55"/><rect x="250" y="760" width="14" height="100" fill="hsl(140 85% 46%)" opacity="0.55"/><rect x="270" y="750" width="14" height="77" fill="hsl(140 85% 46%)" opacity="0.55"/><rect x="290" y="740" width="14" height="101" fill="hsl(140 85% 46%)" opacity="0.55"/><rect x="310" y="730" width="14" height="107" fill="hsl(140 85% 46%)" opacity="0.55"/><rect x="330" y="720" width="14" height="79" fill="hsl(140 85% 46%)" opacity="0.55"/><rect x="350" y="710" width="14" height="72" fill="hsl(140 85% 46%)" opacity="0.55"/><rect x="370" y="700" width="14" height="100" fill="hsl(140 85% 46%)" opacity="0.55"/>
<text x="372" y="90" text-anchor="middle" fill="#ffffff" font-size="44" font-family="Verdana">Relique Tempête des Runes</text>
<text x="372" y="980" text-anchor="middle" fill="#f3f3f3" font-size="26" font-family="Verdana">Raxen Ancestral • A-001</text>
</svg>