<svg xmlns="http://www.w3.org/2000/svg" width="744" height="1039" viewBox="0 0 744 1039">
<defs><linearGradient id="g" x1="0" x2="1" y1="0" y2="1"><stop offset="0" stop-color="hsl(7 67% 45%)"/><stop offset="1" stop-color="hsl(127 78% 40%)"/></linearGradient></defs>
<rect width="744" height="1039" fill="#080b14"/>
<rect x="20" y="20" width="704" height="999" rx="28" fill="url(#g)"/>
<circle cx="481" cy="191" r="118" fill="hsl(7 67% 45%)" opacity="0.34"/><circle cx="618" cy="693" r="134" fill="hsl(127 78% 40%)" opacity="0.18"/><circle cx="426" cy="823" r="63" fill="hsl(231 79% 52%)" opacity="0.36"/><circle cx="377" cy="398" r="46" fill="hsl(7 67% 45%)" opacity="0.43"/><circle cx="595" cy="435" r="41" fill="hsl(127 78% 40%)" opacity="0.34"/>
<path d="M40 760 Q372 751 704 760 L704 1010 L40 1010 Z" fill="hsl(127 78% 40%)" opacity="0.5"/>
<rect x="70" y="850" width="14" height="121" fill="hsl(231 79% 52%)" opacity="0.55"/><rect x="90" y="840" width="14" height="127" fill="hsl(231 79% 52%)" opacity="0.55"/><rect x="110" y="830" width="14" height="114" fill="hsl(231 79% 52%)" opacity="0.55"/><rect x="130" y="820" width="14" height="126" fill="hsl(231 79% 52%)" opacity="0.55"/><rect x="150" y="810" width="14" height="114" fill="hsl(231 79% 52%)" opacity="0.55"/><rect x="170" y="800" width="14" height="96" fill="hsl(231 79% 52%)" opacity="0.55"/><rect x="190" y="790" width="14" height="76" fill="hsl(231 79% 52%)" opacity="0.55"/><rect x="210" y="780" width="14" height="86" fill="hsl(231 79% 52%)" opacity="0.55"/><rect x="230" y="770" width="14" height="74" fill="hsl(231 79% 52%)" opacity="0.55"/><rect x="250" y="760" width="14" height="86" fill="hsl(231 79% 52%)" opacity="0.55"/><rect x="270" y="750" width="14" height="104" fill="hsl(231 79% 52%)" opacity="0.55"/><rect x="290" y="740" width="14" height="93" fill="hsl(231 79% 52%)" opacity="0.55"/><rect x="310" y="730" width="14" height="75" fill="hsl(231 79% 52%)" opacity="0.55"/><rect x="330" y="720" width="14" height="71" fill="hsl(231 79% 52%)" opacity="0.55"/><rect x="350" y="710" width="14" height="115" fill="hsl(231 79% 52%)" opacity="0.55"/><rect x="370" y="700" width="14" height="96" fill="hsl(231 79% 52%)" opacity="0.55"/>
<text x="372" y="90" text-anchor="middle" fill="#ffffff" font-size="44" font-family="Verdana">Relique Astre de l'Orbite</text>
<text x="372" y="980" text-anchor="middle" fill="#f3f3f3" font-size="26" font-family="Verdana">Raxen Ancestral • A-008</text>
</svg>