<svg xmlns="http://www.w3.org/2000/svg" width="744" height="1039" viewBox="0 0 744 1039">
<defs><linearGradient id="g" x1="0" x2="1" y1="0" y2="1"><stop offset="0" stop-color="hsl(76 87% 49%)"/><stop offset="1" stop-color="hsl(20 78% 48%)"/></linearGradient></defs>
<rect width="744" height="1039" fill="#080b14"/>
<rect x="20" y="20" width="704" height="999" rx="28" fill="url(#g)"/>
<circle cx="465" cy="495" r="96" fill="hsl(76 87% 49%)" opacity="0.23"/><circle cx="591" cy="151" r="80" fill="hsl(20 78% 48%)" opacity="0.31"/><circle cx="548" cy="645" r="147" fill="hsl(57 86% 46%)" opacity="0.32"/><circle cx="421" cy="613" r="123" fill="hsl(76 87% 49%)" opacity="0.47"/><circle cx="600" cy="354" r="32" fill="hsl(20 78% 48%)" opacity="0.24"/>
<path d="M40 760 Q372 695 704 760 L704 1010 L40 1010 Z" fill="hsl(20 78% 48%)" opacity="0.5"/>
<rect x="70" y="850" width="14" height="125" fill="hsl(57 86% 46%)" opacity="0.55"/><rect x="90" y="840" width="14" height="83" fill="hsl(57 86% 46%)" opacity="0.55"/><rect x="110" y="830" width="14" height="103" fill="hsl(57 86% 46%)" opacity="0.55"/><rect x="130" y="820" width="14" height="93" fill="hsl(57 86% 46%)" opacity="0.55"/><rect x="150" y="810" width="14" height="120" fill="hsl(57 86% 46%)" opacity="0.55"/><rect x="170" y="800" width="14" height="112" fill="hsl(57 86% 46%)" opacity="0.55"/><rect x="190" y="790" width="14" height="125" fill="hsl(57 86% 46%)" opacity="0.55"/><rect x="210" y="780" width="14" height="128" fill="hsl(57 86% 46%)" opacity="0.55"/><rect x="230" y="770" width="14" height="84" fill="hsl(57 86% 46%)" opacity="0.55"/><rect x="250" y="760" width="14" height="103" fill="hsl(57 86% 46%)" opacity="0.55"/><rect x="270" y="750" width="14" height="93" fill="hsl(57 86% 46%)" opacity="0.55"/><rect x="290" y="740" width="14" height="75" fill="hsl(57 86% 46%)" opacity="0.55"/><rect x="310" y="730" width="14" height="71" fill="hsl(57 86% 46%)" opacity="0.55"/><rect x="330" y="720" width="14" height="70" fill="hsl(57 86% 46%)" opacity="0.55"/><rect x="350" y="710" width="14" height="100" fill="hsl(57 86% 46%)" opacity="0.55"/><rect x="370" y="700" width="14" height="77" fill="hsl(57 86% 46%)" opacity="0.55"/>
<text x="372" y="90" text-anchor="middle" fill="#ffffff" font-size="44" font-family="Verdana">Relique Vortex du Nexus</text>
<text x="372" y="980" text-anchor="middle" fill="#f3f3f3" font-size="26" font-family="Verdana">Raxen Ancestral • A-016</text>
</svg>