<svg xmlns="http://www.w3.org/2000/svg" width="744" height="1039" viewBox="0 0 744 1039">
<defs><linearGradient id="g" x1="0" x2="1" y1="0" y2="1"><stop offset="0" stop-color="hsl(336 83% 56%)"/><stop offset="1" stop-color="hsl(25 61% 38%)"/></linearGradient></defs>
<rect width="744" height="1039" fill="#080b14"/>
<rect x="20" y="20" width="704" height="999" rx="28" fill="url(#g)"/>
<circle cx="358" cy="828" r="63" fill="hsl(336 83% 56%)" opacity="0.46"/><circle cx="249" cy="309" r="109" fill="hsl(25 61% 38%)" opacity="0.49"/><circle cx="213" cy="421" r="77" fill="hsl(277 86% 50%)" opacity="0.29"/><circle cx="532" cy="615" r="132" fill="hsl(336 83% 56%)" opacity="0.17"/><circle cx="119" cy="835" r="100" fill="hsl(25 61% 38%)" opacity="0.20"/>
<path d="M40 760 Q372 668 704 760 L704 1010 L40 1010 Z" fill="hsl(25 61% 38%)" opacity="0.5"/>
<rect x="70" y="850" width="14" height="98" fill="hsl(277 86% 50%)" opacity="0.55"/><rect x="90" y="840" width="14" height="77" fill="hsl(277 86% 50%)" opacity="0.55"/><rect x="110" y="830" width="14" height="86" fill="hsl(277 86% 50%)" opacity="0.55"/><rect x="130" y="820" width="14" height="89" fill="hsl(277 86% 50%)" opacity="0.55"/><rect x="150" y="810" width="14" height="89" fill="hsl(277 86% 50%)" opacity="0.55"/><rect x="170" y="800" width="14" height="89" fill="hsl(277 86% 50%)" opacity="0.55"/><rect x="190" y="790" width="14" height="104" fill="hsl(277 86% 50%)" opacity="0.55"/><rect x="210" y="780" width="14" height="93" fill="hsl(277 86% 50%)" opacity="0.55"/><rect x="230" y="770" width="14" height="120" fill="hsl(277 86% 50%)" opacity="0.55"/><rect x="250" y="760" width="14" height="112" fill="hsl(277 86% 50%)" opacity="0.55"/><rect x="270" y="750" width="14" height="95" fill="hsl(277 86% 50%)" opacity="0.55"/><rect x="290" y="740" width="14" height="91" fill="hsl(277 86% 50%)" opacity="0.55"/><rect x="310" y="730" width="14" height="105" fill="hsl(277 86% 50%)" opacity="0.55"/><rect x="330" y="720" width="14" height="108" fill="hsl(277 86% 50%)" opacity="0.55"/><rect x="350" y="710" width="14" height="79" fill="hsl(277 86% 50%)" opacity="0.55"/><rect x="370" y="700" width="14" height="117" fill="hsl(277 86% 50%)" opacity="0.55"/>
<text x="372" y="90" text-anchor="middle" fill="#ffffff" font-size="44" font-family="Verdana">Relique Oracle des Fragments</text>
<text x="372" y="980" text-anchor="middle" fill="#f3f3f3" font-size="26" font-family="Verdana">Raxen Ancestral • A-015</text>
</svg>