<svg xmlns="http://www.w3.org/2000/svg" width="744" height="1039" viewBox="0 0 744 1039">
<defs><linearGradient id="g" x1="0" x2="1" y1="0" y2="1"><stop offset="0" stop-color="hsl(96 55% 41%)"/><stop offset="1" stop-color="hsl(289 81% 40%)"/></linearGradient></defs>
<rect width="744" height="1039" fill="#080b14"/>
<rect x="20" y="20" width="704" height="999" rx="28" fill="url(#g)"/>
<circle cx="137" cy="247" r="135" fill="hsl(96 55% 41%)" opacity="0.42"/><circle cx="414" cy="790" r="112" fill="hsl(289 81% 40%)" opacity="0.14"/><circle cx="118" cy="378" r="47" fill="hsl(112 66% 49%)" opacity="0.30"/><circle cx="606" cy="764" r="41" fill="hsl(96 55% 41%)" opacity="0.27"/><circle cx="640" cy="262" r="139" fill="hsl(289 81% 40%)" opacity="0.17"/>
<path d="M40 760 Q372 647 704 760 L704 1010 L40 1010 Z" fill="hsl(289 81% 40%)" opacity="0.5"/>
<rect x="70" y="850" width="14" height="77" fill="hsl(112 66% 49%)" opacity="0.55"/><rect x="90" y="840" width="14" height="101" fill="hsl(112 66% 49%)" opacity="0.55"/><rect x="110" y="830" width="14" height="122" fill="hsl(112 66% 49%)" opacity="0.55"/><rect x="130" y="820" width="14" height="98" fill="hsl(112 66% 49%)" opacity="0.55"/><rect x="150" y="810" width="14" height="92" fill="hsl(112 66% 49%)" opacity="0.55"/><rect x="170" y="800" width="14" height="90" fill="hsl(112 66% 49%)" opacity="0.55"/><rect x="190" y="790" width="14" height="105" fill="hsl(112 66% 49%)" opacity="0.55"/><rect x="210" y="780" width="14" height="78" fill="hsl(112 66% 49%)" opacity="0.55"/><rect x="230" y="770" width="14" height="117" fill="hsl(112 66% 49%)" opacity="0.55"/><rect x="250" y="760" width="14" height="81" fill="hsl(112 66% 49%)" opacity="0.55"/><rect x="270" y="750" width="14" height="102" fill="hsl(112 66% 49%)" opacity="0.55"/><rect x="290" y="740" width="14" height="108" fill="hsl(112 66% 49%)" opacity="0.55"/><rect x="310" y="730" width="14" height="124" fill="hsl(112 66% 49%)" opacity="0.55"/><rect x="330" y="720" width="14" height="113" fill="hsl(112 66% 49%)" opacity="0.55"/><rect x="350" y="710" width="14" height="80" fill="hsl(112 66% 49%)" opacity="0.55"/><rect x="370" y="700" width="14" height="87" fill="hsl(112 66% 49%)" opacity="0.55"/>
<text x="372" y="90" text-anchor="middle" fill="#ffffff" font-size="44" font-family="Verdana">Relique Obsidienne du Flux</text>
<text x="372" y="980" text-anchor="middle" fill="#f3f3f3" font-size="26" font-family="Verdana">Raxen Ancestral • A-010</text>
</svg>