<svg xmlns="http://www.w3.org/2000/svg" width="744" height="1039" viewBox="0 0 744 1039">
<defs><linearGradient id="g" x1="0" x2="1" y1="0" y2="1"><stop offset="0" stop-color="hsl(31 84% 56%)"/><stop offset="1" stop-color="hsl(156 61% 56%)"/></linearGradient></defs>
<rect width="744" height="1039" fill="#080b14"/>
<rect x="20" y="20" width="704" height="999" rx="28" fill="url(#g)"/>
<circle cx="254" cy="724" r="120" fill="hsl(31 84% 56%)" opacity="0.35"/><circle cx="498" cy="325" r="74" fill="hsl(156 61% 56%)" opacity="0.18"/><circle cx="320" cy="305" r="91" fill="hsl(59 77% 37%)" opacity="0.21"/><circle cx="380" cy="175" r="114" fill="hsl(31 84% 56%)" opacity="0.31"/><circle cx="490" cy="255" r="122" fill="hsl(156 61% 56%)" opacity="0.27"/>
<path d="M40 760 Q372 644 704 760 L704 1010 L40 1010 Z" fill="hsl(156 61% 56%)" opacity="0.5"/>
<rect x="70" y="850" width="14" height="74" fill="hsl(59 77% 37%)" opacity="0.55"/><rect x="90" y="840" width="14" height="71" fill="hsl(59 77% 37%)" opacity="0.55"/><rect x="110" y="830" width="14" height="115" fill="hsl(59 77% 37%)" opacity="0.55"/><rect x="130" y="820" width="14" height="126" fill="hsl(59 77% 37%)" opacity="0.55"/><rect x="150" y="810" width="14" height="114" fill="hsl(59 77% 37%)" opacity="0.55"/><rect x="170" y="800" width="14" height="81" fill="hsl(59 77% 37%)" opacity="0.55"/><rect x="190" y="790" width="14" height="72" fill="hsl(59 77% 37%)" opacity="0.55"/><rect x="210" y="780" width="14" height="100" fill="hsl(59 77% 37%)" opacity="0.55"/><rect x="230" y="770" width="14" height="107" fill="hsl(59 77% 37%)" opacity="0.55"/><rect x="250" y="760" width="14" height="94" fill="hsl(59 77% 37%)" opacity="0.55"/><rect x="270" y="750" width="14" height="91" fill="hsl(59 77% 37%)" opacity="0.55"/><rect x="290" y="740" width="14" height="75" fill="hsl(59 77% 37%)" opacity="0.55"/><rect x="310" y="730" width="14" height="116" fill="hsl(59 77% 37%)" opacity="0.55"/><rect x="330" y="720" width="14" height="111" fill="hsl(59 77% 37%)" opacity="0.55"/><rect x="350" y="710" width="14" height="110" fill="hsl(59 77% 37%)" opacity="0.55"/><rect x="370" y="700" width="14" height="110" fill="hsl(59 77% 37%)" opacity="0.55"/>
<text x="372" y="90" text-anchor="middle" fill="#ffffff" font-size="44" font-family="Verdana">Relique Ancre de l'Œil</text>
<text x="372" y="980" text-anchor="middle" fill="#f3f3f3" font-size="26" font-family="Verdana">Raxen Ancestral • A-014</text>
</svg>