<svg xmlns="http://www.w3.org/2000/svg" width="744" height="1039" viewBox="0 0 744 1039">
<defs><linearGradient id="g" x1="0" x2="1" y1="0" y2="1"><stop offset="0" stop-color="hsl(353 62% 52%)"/><stop offset="1" stop-color="hsl(2 71% 55%)"/></linearGradient></defs>
<rect width="744" height="1039" fill="#080b14"/>
<rect x="20" y="20" width="704" height="999" rx="28" fill="url(#g)"/>
<circle cx="383" cy="693" r="36" fill="hsl(353 62% 52%)" opacity="0.33"/><circle cx="472" cy="378" r="101" fill="hsl(2 71% 55%)" opacity="0.32"/><circle cx="237" cy="742" r="84" fill="hsl(253 83% 47%)" opacity="0.47"/><circle cx="134" cy="371" r="69" fill="hsl(353 62% 52%)" opacity="0.24"/><circle cx="470" cy="144" r="61" fill="hsl(2 71% 55%)" opacity="0.46"/>
<path d="M40 760 Q372 693 704 760 L704 1010 L40 1010 Z" fill="hsl(2 71% 55%)" opacity="0.5"/>
<rect x="70" y="850" width="14" height="123" fill="hsl(253 83% 47%)" opacity="0.55"/><rect x="90" y="840" width="14" height="83" fill="hsl(253 83% 47%)" opacity="0.55"/><rect x="110" y="830" width="14" height="73" fill="hsl(253 83% 47%)" opacity="0.55"/><rect x="130" y="820" width="14" height="115" fill="hsl(253 83% 47%)" opacity="0.55"/><rect x="150" y="810" width="14" height="81" fill="hsl(253 83% 47%)" opacity="0.55"/><rect x="170" y="800" width="14" height="87" fill="hsl(253 83% 47%)" opacity="0.55"/><rect x="190" y="790" width="14" height="119" fill="hsl(253 83% 47%)" opacity="0.55"/><rect x="210" y="780" width="14" height="97" fill="hsl(253 83% 47%)" opacity="0.55"/><rect x="230" y="770" width="14" height="106" fill="hsl(253 83% 47%)" opacity="0.55"/><rect x="250" y="760" width="14" height="109" fill="hsl(253 83% 47%)" opacity="0.55"/><rect x="270" y="750" width="14" height="79" fill="hsl(253 83% 47%)" opacity="0.55"/><rect x="290" y="740" width="14" height="72" fill="hsl(253 83% 47%)" opacity="0.55"/><rect x="310" y="730" width="14" height="85" fill="hsl(253 83% 47%)" opacity="0.55"/><rect x="330" y="720" width="14" height="73" fill="hsl(253 83% 47%)" opacity="0.55"/><rect x="350" y="710" width="14" height="70" fill="hsl(253 83% 47%)" opacity="0.55"/><rect x="370" y="700" width="14" height="85" fill="hsl(253 83% 47%)" opacity="0.55"/>
<text x="372" y="90" text-anchor="middle" fill="#ffffff" font-size="44" font-family="Verdana">Relique Éclipse des Runes</text>
<text x="372" y="980" text-anchor="middle" fill="#f3f3f3" font-size="26" font-family="Verdana">Raxen Ancestral • A-011</text>
</svg>