<svg xmlns="http://www.w3.org/2000/svg" width="744" height="1039" viewBox="0 0 744 1039">
<defs><linearGradient id="g" x1="0" x2="1" y1="0" y2="1"><stop offset="0" stop-color="hsl(317 55% 52%)"/><stop offset="1" stop-color="hsl(269 63% 44%)"/></linearGradient></defs>
<rect width="744" height="1039" fill="#080b14"/>
<rect x="20" y="20" width="704" height="999" rx="28" fill="url(#g)"/>
<circle cx="259" cy="849" r="81" fill="hsl(317 55% 52%)" opacity="0.35"/><circle cx="253" cy="135" r="31" fill="hsl(269 63% 44%)" opacity="0.13"/><circle cx="436" cy="603" r="123" fill="hsl(340 56% 46%)" opacity="0.40"/><circle cx="97" cy="557" r="126" fill="hsl(317 55% 52%)" opacity="0.23"/><circle cx="234" cy="245" r="51" fill="hsl(269 63% 44%)" opacity="0.36"/>
<path d="M40 760 Q372 689 704 760 L704 1010 L40 1010 Z" fill="hsl(269 63% 44%)" opacity="0.5"/>
<rect x="70" y="850" width="14" height="119" fill="hsl(340 56% 46%)" opacity="0.55"/><rect x="90" y="840" width="14" height="112" fill="hsl(340 56% 46%)" opacity="0.55"/><rect x="110" y="830" width="14" height="95" fill="hsl(340 56% 46%)" opacity="0.55"/><rect x="130" y="820" width="14" height="76" fill="hsl(340 56% 46%)" opacity="0.55"/><rect x="150" y="810" width="14" height="71" fill="hsl(340 56% 46%)" opacity="0.55"/><rect x="170" y="800" width="14" height="100" fill="hsl(340 56% 46%)" opacity="0.55"/><rect x="190" y="790" width="14" height="77" fill="hsl(340 56% 46%)" opacity="0.55"/><rect x="210" y="780" width="14" height="116" fill="hsl(340 56% 46%)" opacity="0.55"/><rect x="230" y="770" width="14" height="96" fill="hsl(340 56% 46%)" opacity="0.55"/><rect x="250" y="760" width="14" height="106" fill="hsl(340 56% 46%)" opacity="0.55"/><rect x="270" y="750" width="14" height="124" fill="hsl(340 56% 46%)" opacity="0.55"/><rect x="290" y="740" width="14" height="113" fill="hsl(340 56% 46%)" opacity="0.55"/><rect x="310" y="730" width="14" height="80" fill="hsl(340 56% 46%)" opacity="0.55"/><rect x="330" y="720" width="14" height="87" fill="hsl(340 56% 46%)" opacity="0.55"/><rect x="350" y="710" width="14" height="74" fill="hsl(340 56% 46%)" opacity="0.55"/><rect x="370" y="700" width="14" height="86" fill="hsl(340 56% 46%)" opacity="0.55"/>
<text x="372" y="90" text-anchor="middle" fill="#ffffff" font-size="44" font-family="Verdana">Xyron, Souverain des Fractales</text>
<text x="372" y="980" text-anchor="middle" fill="#f3f3f3" font-size="26" font-family="Verdana">Raxen Ancestral • H-001</text>
</svg>