<svg xmlns="http://www.w3.org/2000/svg" width="744" height="1039" viewBox="0 0 744 1039">
<defs><linearGradient id="g" x1="0" x2="1" y1="0" y2="1"><stop offset="0" stop-color="hsl(126 67% 37%)"/><stop offset="1" stop-color="hsl(72 78% 35%)"/></linearGradient></defs>
<rect width="744" height="1039" fill="#080b14"/>
<rect x="20" y="20" width="704" height="999" rx="28" fill="url(#g)"/>
<circle cx="319" cy="509" r="108" fill="hsl(126 67% 37%)" opacity="0.29"/><circle cx="122" cy="682" r="126" fill="hsl(72 78% 35%)" opacity="0.42"/><circle cx="160" cy="209" r="130" fill="hsl(51 74% 41%)" opacity="0.14"/><circle cx="348" cy="835" r="59" fill="hsl(126 67% 37%)" opacity="0.30"/><circle cx="586" cy="739" r="34" fill="hsl(72 78% 35%)" opacity="0.47"/>
<path d="M40 760 Q372 669 704 760 L704 1010 L40 1010 Z" fill="hsl(72 78% 35%)" opacity="0.5"/>
<rect x="70" y="850" width="14" height="99" fill="hsl(51 74% 41%)" opacity="0.55"/><rect x="90" y="840" width="14" height="107" fill="hsl(51 74% 41%)" opacity="0.55"/><rect x="110" y="830" width="14" height="109" fill="hsl(51 74% 41%)" opacity="0.55"/><rect x="130" y="820" width="14" height="94" fill="hsl(51 74% 41%)" opacity="0.55"/><rect x="150" y="810" width="14" height="106" fill="hsl(51 74% 41%)" opacity="0.55"/><rect x="170" y="800" width="14" height="94" fill="hsl(51 74% 41%)" opacity="0.55"/><rect x="190" y="790" width="14" height="91" fill="hsl(51 74% 41%)" opacity="0.55"/><rect x="210" y="780" width="14" height="120" fill="hsl(51 74% 41%)" opacity="0.55"/><rect x="230" y="770" width="14" height="127" fill="hsl(51 74% 41%)" opacity="0.55"/><rect x="250" y="760" width="14" height="99" fill="hsl(51 74% 41%)" opacity="0.55"/><rect x="270" y="750" width="14" height="107" fill="hsl(51 74% 41%)" opacity="0.55"/><rect x="290" y="740" width="14" height="79" fill="hsl(51 74% 41%)" opacity="0.55"/><rect x="310" y="730" width="14" height="72" fill="hsl(51 74% 41%)" opacity="0.55"/><rect x="330" y="720" width="14" height="115" fill="hsl(51 74% 41%)" opacity="0.55"/><rect x="350" y="710" width="14" height="126" fill="hsl(51 74% 41%)" opacity="0.55"/><rect x="370" y="700" width="14" height="114" fill="hsl(51 74% 41%)" opacity="0.55"/>
<text x="372" y="90" text-anchor="middle" fill="#ffffff" font-size="44" font-family="Verdana">Rituel Nébuleuse du Nexus</text>
<text x="372" y="980" text-anchor="middle" fill="#f3f3f3" font-size="26" font-family="Verdana">Raxen Ancestral • S-009</text>
</svg>