<svg xmlns="http://www.w3.org/2000/svg" width="744" height="1039" viewBox="0 0 744 1039">
<defs><linearGradient id="g" x1="0" x2="1" y1="0" y2="1"><stop offset="0" stop-color="hsl(116 67% 50%)"/><stop offset="1" stop-color="hsl(218 81% 38%)"/></linearGradient></defs>
<rect width="744" height="1039" fill="#080b14"/>
<rect x="20" y="20" width="704" height="999" rx="28" fill="url(#g)"/>
<circle cx="175" cy="605" r="130" fill="hsl(116 67% 50%)" opacity="0.40"/><circle cx="243" cy="654" r="66" fill="hsl(218 81% 38%)" opacity="0.43"/><circle cx="436" cy="675" r="83" fill="hsl(101 82% 57%)" opacity="0.39"/><circle cx="560" cy="156" r="76" fill="hsl(116 67% 50%)" opacity="0.23"/><circle cx="290" cy="321" r="87" fill="hsl(218 81% 38%)" opacity="0.36"/>
<path d="M40 760 Q372 725 704 760 L704 1010 L40 1010 Z" fill="hsl(218 81% 38%)" opacity="0.5"/>
<rect x="70" y="850" width="14" height="95" fill="hsl(101 82% 57%)" opacity="0.55"/><rect x="90" y="840" width="14" height="91" fill="hsl(101 82% 57%)" opacity="0.55"/><rect x="110" y="830" width="14" height="120" fill="hsl(101 82% 57%)" opacity="0.55"/><rect x="130" y="820" width="14" height="97" fill="hsl(101 82% 57%)" opacity="0.55"/><rect x="150" y="810" width="14" height="106" fill="hsl(101 82% 57%)" opacity="0.55"/><rect x="170" y="800" width="14" height="79" fill="hsl(101 82% 57%)" opacity="0.55"/><rect x="190" y="790" width="14" height="117" fill="hsl(101 82% 57%)" opacity="0.55"/><rect x="210" y="780" width="14" height="96" fill="hsl(101 82% 57%)" opacity="0.55"/><rect x="230" y="770" width="14" height="76" fill="hsl(101 82% 57%)" opacity="0.55"/><rect x="250" y="760" width="14" height="116" fill="hsl(101 82% 57%)" opacity="0.55"/><rect x="270" y="750" width="14" height="111" fill="hsl(101 82% 57%)" opacity="0.55"/><rect x="290" y="740" width="14" height="125" fill="hsl(101 82% 57%)" opacity="0.55"/><rect x="310" y="730" width="14" height="98" fill="hsl(101 82% 57%)" opacity="0.55"/><rect x="330" y="720" width="14" height="92" fill="hsl(101 82% 57%)" opacity="0.55"/><rect x="350" y="710" width="14" height="90" fill="hsl(101 82% 57%)" opacity="0.55"/><rect x="370" y="700" width="14" height="120" fill="hsl(101 82% 57%)" opacity="0.55"/>
<text x="372" y="90" text-anchor="middle" fill="#ffffff" font-size="44" font-family="Verdana">Rituel Obsidienne de l'Orbite</text>
<text x="372" y="980" text-anchor="middle" fill="#f3f3f3" font-size="26" font-family="Verdana">Raxen Ancestral • S-001</text>
</svg>