<svg xmlns="http://www.w3.org/2000/svg" width="744" height="1039" viewBox="0 0 744 1039">
<defs><linearGradient id="g" x1="0" x2="1" y1="0" y2="1"><stop offset="0" stop-color="hsl(345 70% 52%)"/><stop offset="1" stop-color="hsl(51 88% 49%)"/></linearGradient></defs>
<rect width="744" height="1039" fill="#080b14"/>
<rect x="20" y="20" width="704" height="999" rx="28" fill="url(#g)"/>
<circle cx="463" cy="373" r="36" fill="hsl(345 70% 52%)" opacity="0.33"/><circle cx="197" cy="381" r="123" fill="hsl(51 88% 49%)" opacity="0.37"/><circle cx="287" cy="213" r="145" fill="hsl(78 89% 38%)" opacity="0.13"/><circle cx="196" cy="232" r="82" fill="hsl(345 70% 52%)" opacity="0.45"/><circle cx="637" cy="297" r="76" fill="hsl(51 88% 49%)" opacity="0.19"/>
<path d="M40 760 Q372 693 704 760 L704 1010 L40 1010 Z" fill="hsl(51 88% 49%)" opacity="0.5"/>
<rect x="70" y="850" width="14" height="123" fill="hsl(78 89% 38%)" opacity="0.55"/><rect x="90" y="840" width="14" height="83" fill="hsl(78 89% 38%)" opacity="0.55"/><rect x="110" y="830" width="14" height="73" fill="hsl(78 89% 38%)" opacity="0.55"/><rect x="130" y="820" width="14" height="85" fill="hsl(78 89% 38%)" opacity="0.55"/><rect x="150" y="810" width="14" height="103" fill="hsl(78 89% 38%)" opacity="0.55"/><rect x="170" y="800" width="14" height="93" fill="hsl(78 89% 38%)" opacity="0.55"/><rect x="190" y="790" width="14" height="120" fill="hsl(78 89% 38%)" opacity="0.55"/><rect x="210" y="780" width="14" height="127" fill="hsl(78 89% 38%)" opacity="0.55"/><rect x="230" y="770" width="14" height="99" fill="hsl(78 89% 38%)" opacity="0.55"/><rect x="250" y="760" width="14" height="122" fill="hsl(78 89% 38%)" opacity="0.55"/><rect x="270" y="750" width="14" height="83" fill="hsl(78 89% 38%)" opacity="0.55"/><rect x="290" y="740" width="14" height="103" fill="hsl(78 89% 38%)" opacity="0.55"/><rect x="310" y="730" width="14" height="93" fill="hsl(78 89% 38%)" opacity="0.55"/><rect x="330" y="720" width="14" height="120" fill="hsl(78 89% 38%)" opacity="0.55"/><rect x="350" y="710" width="14" height="97" fill="hsl(78 89% 38%)" opacity="0.55"/><rect x="370" y="700" width="14" height="106" fill="hsl(78 89% 38%)" opacity="0.55"/>
<text x="372" y="90" text-anchor="middle" fill="#ffffff" font-size="44" font-family="Verdana">Rituel Oracle du Relais</text>
<text x="372" y="980" text-anchor="middle" fill="#f3f3f3" font-size="26" font-family="Verdana">Raxen Ancestral • S-006</text>
</svg>