<svg xmlns="http://www.w3.org/2000/svg" width="744" height="1039" viewBox="0 0 744 1039">
<defs><linearGradient id="g" x1="0" x2="1" y1="0" y2="1"><stop offset="0" stop-color="hsl(69 88% 49%)"/><stop offset="1" stop-color="hsl(206 81% 55%)"/></linearGradient></defs>
<rect width="744" height="1039" fill="#080b14"/>
<rect x="20" y="20" width="704" height="999" rx="28" fill="url(#g)"/>
<circle cx="557" cy="507" r="88" fill="hsl(69 88% 49%)" opacity="0.39"/><circle cx="408" cy="264" r="69" fill="hsl(206 81% 55%)" opacity="0.48"/><circle cx="298" cy="257" r="46" fill="hsl(47 83% 54%)" opacity="0.19"/><circle cx="524" cy="243" r="68" fill="hsl(69 88% 49%)" opacity="0.26"/><circle cx="434" cy="784" r="98" fill="hsl(206 81% 55%)" opacity="0.42"/>
<path d="M40 760 Q372 747 704 760 L704 1010 L40 1010 Z" fill="hsl(206 81% 55%)" opacity="0.5"/>
<rect x="70" y="850" width="14" height="117" fill="hsl(47 83% 54%)" opacity="0.55"/><rect x="90" y="840" width="14" height="126" fill="hsl(47 83% 54%)" opacity="0.55"/><rect x="110" y="830" width="14" height="99" fill="hsl(47 83% 54%)" opacity="0.55"/><rect x="130" y="820" width="14" height="107" fill="hsl(47 83% 54%)" opacity="0.55"/><rect x="150" y="810" width="14" height="109" fill="hsl(47 83% 54%)" opacity="0.55"/><rect x="170" y="800" width="14" height="79" fill="hsl(47 83% 54%)" opacity="0.55"/><rect x="190" y="790" width="14" height="102" fill="hsl(47 83% 54%)" opacity="0.55"/><rect x="210" y="780" width="14" height="78" fill="hsl(47 83% 54%)" opacity="0.55"/><rect x="230" y="770" width="14" height="102" fill="hsl(47 83% 54%)" opacity="0.55"/><rect x="250" y="760" width="14" height="108" fill="hsl(47 83% 54%)" opacity="0.55"/><rect x="270" y="750" width="14" height="79" fill="hsl(47 83% 54%)" opacity="0.55"/><rect x="290" y="740" width="14" height="87" fill="hsl(47 83% 54%)" opacity="0.55"/><rect x="310" y="730" width="14" height="104" fill="hsl(47 83% 54%)" opacity="0.55"/><rect x="330" y="720" width="14" height="108" fill="hsl(47 83% 54%)" opacity="0.55"/><rect x="350" y="710" width="14" height="94" fill="hsl(47 83% 54%)" opacity="0.55"/><rect x="370" y="700" width="14" height="76" fill="hsl(47 83% 54%)" opacity="0.55"/>
<text x="372" y="90" text-anchor="middle" fill="#ffffff" font-size="44" font-family="Verdana">Rituel Éclipse de Cendre</text>
<text x="372" y="980" text-anchor="middle" fill="#f3f3f3" font-size="26" font-family="Verdana">Raxen Ancestral • S-002</text>
</svg>