<svg xmlns="http://www.w3.org/2000/svg" width="744" height="1039" viewBox="0 0 744 1039">
<defs><linearGradient id="g" x1="0" x2="1" y1="0" y2="1"><stop offset="0" stop-color="hsl(329 80% 39%)"/><stop offset="1" stop-color="hsl(197 72% 52%)"/></linearGradient></defs>
<rect width="744" height="1039" fill="#080b14"/>
<rect x="20" y="20" width="704" height="999" rx="28" fill="url(#g)"/>
<circle cx="100" cy="130" r="71" fill="hsl(329 80% 39%)" opacity="0.30"/><circle cx="597" cy="621" r="83" fill="hsl(197 72% 52%)" opacity="0.37"/><circle cx="417" cy="312" r="125" fill="hsl(259 65% 45%)" opacity="0.13"/><circle cx="315" cy="289" r="115" fill="hsl(329 80% 39%)" opacity="0.25"/><circle cx="559" cy="332" r="66" fill="hsl(197 72% 52%)" opacity="0.31"/>
<path d="M40 760 Q372 730 704 760 L704 1010 L40 1010 Z" fill="hsl(197 72% 52%)" opacity="0.5"/>
<rect x="70" y="850" width="14" height="100" fill="hsl(259 65% 45%)" opacity="0.55"/><rect x="90" y="840" width="14" height="92" fill="hsl(259 65% 45%)" opacity="0.55"/><rect x="110" y="830" width="14" height="90" fill="hsl(259 65% 45%)" opacity="0.55"/><rect x="130" y="820" width="14" height="105" fill="hsl(259 65% 45%)" opacity="0.55"/><rect x="150" y="810" width="14" height="123" fill="hsl(259 65% 45%)" opacity="0.55"/><rect x="170" y="800" width="14" height="113" fill="hsl(259 65% 45%)" opacity="0.55"/><rect x="190" y="790" width="14" height="80" fill="hsl(259 65% 45%)" opacity="0.55"/><rect x="210" y="780" width="14" height="117" fill="hsl(259 65% 45%)" opacity="0.55"/><rect x="230" y="770" width="14" height="111" fill="hsl(259 65% 45%)" opacity="0.55"/><rect x="250" y="760" width="14" height="95" fill="hsl(259 65% 45%)" opacity="0.55"/><rect x="270" y="750" width="14" height="121" fill="hsl(259 65% 45%)" opacity="0.55"/><rect x="290" y="740" width="14" height="82" fill="hsl(259 65% 45%)" opacity="0.55"/><rect x="310" y="730" width="14" height="88" fill="hsl(259 65% 45%)" opacity="0.55"/><rect x="330" y="720" width="14" height="89" fill="hsl(259 65% 45%)" opacity="0.55"/><rect x="350" y="710" width="14" height="119" fill="hsl(259 65% 45%)" opacity="0.55"/><rect x="370" y="700" width="14" height="127" fill="hsl(259 65% 45%)" opacity="0.55"/>
<text x="372" y="90" text-anchor="middle" fill="#ffffff" font-size="44" font-family="Verdana">Rituel Tempête des Runes</text>
<text x="372" y="980" text-anchor="middle" fill="#f3f3f3" font-size="26" font-family="Verdana">Raxen Ancestral • S-004</text>
</svg>