<svg xmlns="http://www.w3.org/2000/svg" width="744" height="1039" viewBox="0 0 744 1039">
<defs><linearGradient id="g" x1="0" x2="1" y1="0" y2="1"><stop offset="0" stop-color="hsl(2 88% 37%)"/><stop offset="1" stop-color="hsl(71 79% 42%)"/></linearGradient></defs>
<rect width="744" height="1039" fill="#080b14"/>
<rect x="20" y="20" width="704" height="999" rx="28" fill="url(#g)"/>
<circle cx="622" cy="212" r="106" fill="hsl(2 88% 37%)" opacity="0.28"/><circle cx="212" cy="692" r="51" fill="hsl(71 79% 42%)" opacity="0.12"/><circle cx="436" cy="487" r="83" fill="hsl(203 77% 59%)" opacity="0.35"/><circle cx="184" cy="214" r="106" fill="hsl(2 88% 37%)" opacity="0.23"/><circle cx="620" cy="795" r="73" fill="hsl(71 79% 42%)" opacity="0.36"/>
<path d="M40 760 Q372 652 704 760 L704 1010 L40 1010 Z" fill="hsl(71 79% 42%)" opacity="0.5"/>
<rect x="70" y="850" width="14" height="82" fill="hsl(203 77% 59%)" opacity="0.55"/><rect x="90" y="840" width="14" height="103" fill="hsl(203 77% 59%)" opacity="0.55"/><rect x="110" y="830" width="14" height="108" fill="hsl(203 77% 59%)" opacity="0.55"/><rect x="130" y="820" width="14" height="94" fill="hsl(203 77% 59%)" opacity="0.55"/><rect x="150" y="810" width="14" height="91" fill="hsl(203 77% 59%)" opacity="0.55"/><rect x="170" y="800" width="14" height="75" fill="hsl(203 77% 59%)" opacity="0.55"/><rect x="190" y="790" width="14" height="116" fill="hsl(203 77% 59%)" opacity="0.55"/><rect x="210" y="780" width="14" height="96" fill="hsl(203 77% 59%)" opacity="0.55"/><rect x="230" y="770" width="14" height="76" fill="hsl(203 77% 59%)" opacity="0.55"/><rect x="250" y="760" width="14" height="86" fill="hsl(203 77% 59%)" opacity="0.55"/><rect x="270" y="750" width="14" height="119" fill="hsl(203 77% 59%)" opacity="0.55"/><rect x="290" y="740" width="14" height="97" fill="hsl(203 77% 59%)" opacity="0.55"/><rect x="310" y="730" width="14" height="91" fill="hsl(203 77% 59%)" opacity="0.55"/><rect x="330" y="720" width="14" height="90" fill="hsl(203 77% 59%)" opacity="0.55"/><rect x="350" y="710" width="14" height="120" fill="hsl(203 77% 59%)" opacity="0.55"/><rect x="370" y="700" width="14" height="82" fill="hsl(203 77% 59%)" opacity="0.55"/>
<text x="372" y="90" text-anchor="middle" fill="#ffffff" font-size="44" font-family="Verdana">Rituel Ancre de l'Aube Sombre</text>
<text x="372" y="980" text-anchor="middle" fill="#f3f3f3" font-size="26" font-family="Verdana">Raxen Ancestral • S-005</text>
</svg>