<svg xmlns="http://www.w3.org/2000/svg" width="744" height="1039" viewBox="0 0 744 1039">
<defs><linearGradient id="g" x1="0" x2="1" y1="0" y2="1"><stop offset="0" stop-color="hsl(326 64% 34%)"/><stop offset="1" stop-color="hsl(199 88% 52%)"/></linearGradient></defs>
<rect width="744" height="1039" fill="#080b14"/>
<rect x="20" y="20" width="704" height="999" rx="28" fill="url(#g)"/>
<circle cx="440" cy="350" r="83" fill="hsl(326 64% 34%)" opacity="0.36"/><circle cx="543" cy="633" r="136" fill="hsl(199 88% 52%)" opacity="0.23"/><circle cx="194" cy="141" r="78" fill="hsl(281 57% 38%)" opacity="0.36"/><circle cx="292" cy="382" r="46" fill="hsl(326 64% 34%)" opacity="0.18"/><circle cx="165" cy="445" r="60" fill="hsl(199 88% 52%)" opacity="0.36"/>
<path d="M40 760 Q372 710 704 760 L704 1010 L40 1010 Z" fill="hsl(199 88% 52%)" opacity="0.5"/>
<rect x="70" y="850" width="14" height="80" fill="hsl(281 57% 38%)" opacity="0.55"/><rect x="90" y="840" width="14" height="117" fill="hsl(281 57% 38%)" opacity="0.55"/><rect x="110" y="830" width="14" height="96" fill="hsl(281 57% 38%)" opacity="0.55"/><rect x="130" y="820" width="14" height="76" fill="hsl(281 57% 38%)" opacity="0.55"/><rect x="150" y="810" width="14" height="116" fill="hsl(281 57% 38%)" opacity="0.55"/><rect x="170" y="800" width="14" height="96" fill="hsl(281 57% 38%)" opacity="0.55"/><rect x="190" y="790" width="14" height="106" fill="hsl(281 57% 38%)" opacity="0.55"/><rect x="210" y="780" width="14" height="94" fill="hsl(281 57% 38%)" opacity="0.55"/><rect x="230" y="770" width="14" height="76" fill="hsl(281 57% 38%)" opacity="0.55"/><rect x="250" y="760" width="14" height="86" fill="hsl(281 57% 38%)" opacity="0.55"/><rect x="270" y="750" width="14" height="74" fill="hsl(281 57% 38%)" opacity="0.55"/><rect x="290" y="740" width="14" height="71" fill="hsl(281 57% 38%)" opacity="0.55"/><rect x="310" y="730" width="14" height="85" fill="hsl(281 57% 38%)" opacity="0.55"/><rect x="330" y="720" width="14" height="73" fill="hsl(281 57% 38%)" opacity="0.55"/><rect x="350" y="710" width="14" height="85" fill="hsl(281 57% 38%)" opacity="0.55"/><rect x="370" y="700" width="14" height="88" fill="hsl(281 57% 38%)" opacity="0.55"/>
<text x="372" y="90" text-anchor="middle" fill="#ffffff" font-size="44" font-family="Verdana">Rituel Prisme du Flux</text>
<text x="372" y="980" text-anchor="middle" fill="#f3f3f3" font-size="26" font-family="Verdana">Raxen Ancestral • S-003</text>
</svg>