<svg xmlns="http://www.w3.org/2000/svg" width="744" height="1039" viewBox="0 0 744 1039">
<defs><linearGradient id="g" x1="0" x2="1" y1="0" y2="1"><stop offset="0" stop-color="hsl(181 64% 59%)"/><stop offset="1" stop-color="hsl(127 68% 43%)"/></linearGradient></defs>
<rect width="744" height="1039" fill="#080b14"/>
<rect x="20" y="20" width="704" height="999" rx="28" fill="url(#g)"/>
<circle cx="477" cy="307" r="58" fill="hsl(181 64% 59%)" opacity="0.24"/><circle cx="556" cy="219" r="143" fill="hsl(127 68% 43%)" opacity="0.36"/><circle cx="557" cy="877" r="44" fill="hsl(223 83% 34%)" opacity="0.48"/><circle cx="644" cy="668" r="109" fill="hsl(181 64% 59%)" opacity="0.24"/><circle cx="453" cy="609" r="88" fill="hsl(127 68% 43%)" opacity="0.46"/>
<path d="M40 760 Q372 747 704 760 L704 1010 L40 1010 Z" fill="hsl(127 68% 43%)" opacity="0.5"/>
<rect x="70" y="850" width="14" height="117" fill="hsl(223 83% 34%)" opacity="0.55"/><rect x="90" y="840" width="14" height="126" fill="hsl(223 83% 34%)" opacity="0.55"/><rect x="110" y="830" width="14" height="84" fill="hsl(223 83% 34%)" opacity="0.55"/><rect x="130" y="820" width="14" height="103" fill="hsl(223 83% 34%)" opacity="0.55"/><rect x="150" y="810" width="14" height="123" fill="hsl(223 83% 34%)" opacity="0.55"/><rect x="170" y="800" width="14" height="128" fill="hsl(223 83% 34%)" opacity="0.55"/><rect x="190" y="790" width="14" height="99" fill="hsl(223 83% 34%)" opacity="0.55"/><rect x="210" y="780" width="14" height="77" fill="hsl(223 83% 34%)" opacity="0.55"/><rect x="230" y="770" width="14" height="86" fill="hsl(223 83% 34%)" opacity="0.55"/><rect x="250" y="760" width="14" height="89" fill="hsl(223 83% 34%)" opacity="0.55"/><rect x="270" y="750" width="14" height="119" fill="hsl(223 83% 34%)" opacity="0.55"/><rect x="290" y="740" width="14" height="127" fill="hsl(223 83% 34%)" opacity="0.55"/><rect x="310" y="730" width="14" height="99" fill="hsl(223 83% 34%)" opacity="0.55"/><rect x="330" y="720" width="14" height="122" fill="hsl(223 83% 34%)" opacity="0.55"/><rect x="350" y="710" width="14" height="113" fill="hsl(223 83% 34%)" opacity="0.55"/><rect x="370" y="700" width="14" height="80" fill="hsl(223 83% 34%)" opacity="0.55"/>
<text x="372" y="90" text-anchor="middle" fill="#ffffff" font-size="44" font-family="Verdana">Rituel Faille de Cendre</text>
<text x="372" y="980" text-anchor="middle" fill="#f3f3f3" font-size="26" font-family="Verdana">Raxen Ancestral • S-012</text>
</svg>