<svg xmlns="http://www.w3.org/2000/svg" width="744" height="1039" viewBox="0 0 744 1039">
<defs><linearGradient id="g" x1="0" x2="1" y1="0" y2="1"><stop offset="0" stop-color="hsl(320 67% 55%)"/><stop offset="1" stop-color="hsl(124 56% 39%)"/></linearGradient></defs>
<rect width="744" height="1039" fill="#080b14"/>
<rect x="20" y="20" width="704" height="999" rx="28" fill="url(#g)"/>
<circle cx="286" cy="276" r="144" fill="hsl(320 67% 55%)" opacity="0.47"/><circle cx="419" cy="675" r="74" fill="hsl(124 56% 39%)" opacity="0.19"/><circle cx="254" cy="536" r="38" fill="hsl(190 70% 38%)" opacity="0.41"/><circle cx="362" cy="611" r="90" fill="hsl(320 67% 55%)" opacity="0.18"/><circle cx="219" cy="274" r="118" fill="hsl(124 56% 39%)" opacity="0.11"/>
<path d="M40 760 Q372 716 704 760 L704 1010 L40 1010 Z" fill="hsl(124 56% 39%)" opacity="0.5"/>
<rect x="70" y="850" width="14" height="86" fill="hsl(190 70% 38%)" opacity="0.55"/><rect x="90" y="840" width="14" height="119" fill="hsl(190 70% 38%)" opacity="0.55"/><rect x="110" y="830" width="14" height="127" fill="hsl(190 70% 38%)" opacity="0.55"/><rect x="130" y="820" width="14" height="129" fill="hsl(190 70% 38%)" opacity="0.55"/><rect x="150" y="810" width="14" height="114" fill="hsl(190 70% 38%)" opacity="0.55"/><rect x="170" y="800" width="14" height="81" fill="hsl(190 70% 38%)" opacity="0.55"/><rect x="190" y="790" width="14" height="87" fill="hsl(190 70% 38%)" opacity="0.55"/><rect x="210" y="780" width="14" height="74" fill="hsl(190 70% 38%)" opacity="0.55"/><rect x="230" y="770" width="14" height="71" fill="hsl(190 70% 38%)" opacity="0.55"/><rect x="250" y="760" width="14" height="70" fill="hsl(190 70% 38%)" opacity="0.55"/><rect x="270" y="750" width="14" height="115" fill="hsl(190 70% 38%)" opacity="0.55"/><rect x="290" y="740" width="14" height="126" fill="hsl(190 70% 38%)" opacity="0.55"/><rect x="310" y="730" width="14" height="114" fill="hsl(190 70% 38%)" opacity="0.55"/><rect x="330" y="720" width="14" height="126" fill="hsl(190 70% 38%)" opacity="0.55"/><rect x="350" y="710" width="14" height="99" fill="hsl(190 70% 38%)" opacity="0.55"/><rect x="370" y="700" width="14" height="122" fill="hsl(190 70% 38%)" opacity="0.55"/>
<text x="372" y="90" text-anchor="middle" fill="#ffffff" font-size="44" font-family="Verdana">Rituel Éclipse des Runes</text>
<text x="372" y="980" text-anchor="middle" fill="#f3f3f3" font-size="26" font-family="Verdana">Raxen Ancestral • S-014</text>
</svg>