<svg xmlns="http://www.w3.org/2000/svg" width="744" height="1039" viewBox="0 0 744 1039">
<defs><linearGradient id="g" x1="0" x2="1" y1="0" y2="1"><stop offset="0" stop-color="hsl(76 75% 42%)"/><stop offset="1" stop-color="hsl(310 56% 47%)"/></linearGradient></defs>
<rect width="744" height="1039" fill="#080b14"/>
<rect x="20" y="20" width="704" height="999" rx="28" fill="url(#g)"/>
<circle cx="341" cy="851" r="131" fill="hsl(76 75% 42%)" opacity="0.40"/><circle cx="148" cy="778" r="59" fill="hsl(310 56% 47%)" opacity="0.28"/><circle cx="182" cy="288" r="94" fill="hsl(150 82% 43%)" opacity="0.47"/><circle cx="427" cy="388" r="50" fill="hsl(76 75% 42%)" opacity="0.34"/><circle cx="438" cy="515" r="94" fill="hsl(310 56% 47%)" opacity="0.13"/>
<path d="M40 760 Q372 731 704 760 L704 1010 L40 1010 Z" fill="hsl(310 56% 47%)" opacity="0.5"/>
<rect x="70" y="850" width="14" height="101" fill="hsl(150 82% 43%)" opacity="0.55"/><rect x="90" y="840" width="14" height="92" fill="hsl(150 82% 43%)" opacity="0.55"/><rect x="110" y="830" width="14" height="120" fill="hsl(150 82% 43%)" opacity="0.55"/><rect x="130" y="820" width="14" height="127" fill="hsl(150 82% 43%)" opacity="0.55"/><rect x="150" y="810" width="14" height="99" fill="hsl(150 82% 43%)" opacity="0.55"/><rect x="170" y="800" width="14" height="107" fill="hsl(150 82% 43%)" opacity="0.55"/><rect x="190" y="790" width="14" height="79" fill="hsl(150 82% 43%)" opacity="0.55"/><rect x="210" y="780" width="14" height="102" fill="hsl(150 82% 43%)" opacity="0.55"/><rect x="230" y="770" width="14" height="93" fill="hsl(150 82% 43%)" opacity="0.55"/><rect x="250" y="760" width="14" height="90" fill="hsl(150 82% 43%)" opacity="0.55"/><rect x="270" y="750" width="14" height="105" fill="hsl(150 82% 43%)" opacity="0.55"/><rect x="290" y="740" width="14" height="78" fill="hsl(150 82% 43%)" opacity="0.55"/><rect x="310" y="730" width="14" height="102" fill="hsl(150 82% 43%)" opacity="0.55"/><rect x="330" y="720" width="14" height="123" fill="hsl(150 82% 43%)" opacity="0.55"/><rect x="350" y="710" width="14" height="98" fill="hsl(150 82% 43%)" opacity="0.55"/><rect x="370" y="700" width="14" height="77" fill="hsl(150 82% 43%)" opacity="0.55"/>
<text x="372" y="90" text-anchor="middle" fill="#ffffff" font-size="44" font-family="Verdana">Rituel Tempête du Relais</text>
<text x="372" y="980" text-anchor="middle" fill="#f3f3f3" font-size="26" font-family="Verdana">Raxen Ancestral • S-016</text>
</svg>