<svg xmlns="http://www.w3.org/2000/svg" width="744" height="1039" viewBox="0 0 744 1039">
<defs><linearGradient id="g" x1="0" x2="1" y1="0" y2="1"><stop offset="0" stop-color="hsl(358 79% 53%)"/><stop offset="1" stop-color="hsl(46 88% 38%)"/></linearGradient></defs>
<rect width="744" height="1039" fill="#080b14"/>
<rect x="20" y="20" width="704" height="999" rx="28" fill="url(#g)"/>
<circle cx="102" cy="692" r="121" fill="hsl(358 79% 53%)" opacity="0.15"/><circle cx="295" cy="492" r="92" fill="hsl(46 88% 38%)" opacity="0.15"/><circle cx="406" cy="524" r="103" fill="hsl(286 73% 35%)" opacity="0.35"/><circle cx="499" cy="600" r="144" fill="hsl(358 79% 53%)" opacity="0.43"/><circle cx="342" cy="614" r="112" fill="hsl(46 88% 38%)" opacity="0.29"/>
<path d="M40 760 Q372 652 704 760 L704 1010 L40 1010 Z" fill="hsl(46 88% 38%)" opacity="0.5"/>
<rect x="70" y="850" width="14" height="82" fill="hsl(286 73% 35%)" opacity="0.55"/><rect x="90" y="840" width="14" height="73" fill="hsl(286 73% 35%)" opacity="0.55"/><rect x="110" y="830" width="14" height="115" fill="hsl(286 73% 35%)" opacity="0.55"/><rect x="130" y="820" width="14" height="81" fill="hsl(286 73% 35%)" opacity="0.55"/><rect x="150" y="810" width="14" height="72" fill="hsl(286 73% 35%)" opacity="0.55"/><rect x="170" y="800" width="14" height="115" fill="hsl(286 73% 35%)" opacity="0.55"/><rect x="190" y="790" width="14" height="96" fill="hsl(286 73% 35%)" opacity="0.55"/><rect x="210" y="780" width="14" height="106" fill="hsl(286 73% 35%)" opacity="0.55"/><rect x="230" y="770" width="14" height="109" fill="hsl(286 73% 35%)" opacity="0.55"/><rect x="250" y="760" width="14" height="124" fill="hsl(286 73% 35%)" opacity="0.55"/><rect x="270" y="750" width="14" height="128" fill="hsl(286 73% 35%)" opacity="0.55"/><rect x="290" y="740" width="14" height="114" fill="hsl(286 73% 35%)" opacity="0.55"/><rect x="310" y="730" width="14" height="111" fill="hsl(286 73% 35%)" opacity="0.55"/><rect x="330" y="720" width="14" height="80" fill="hsl(286 73% 35%)" opacity="0.55"/><rect x="350" y="710" width="14" height="102" fill="hsl(286 73% 35%)" opacity="0.55"/><rect x="370" y="700" width="14" height="93" fill="hsl(286 73% 35%)" opacity="0.55"/>
<text x="372" y="90" text-anchor="middle" fill="#ffffff" font-size="44" font-family="Verdana">Rituel Prisme de l'Aube Sombre</text>
<text x="372" y="980" text-anchor="middle" fill="#f3f3f3" font-size="26" font-family="Verdana">Raxen Ancestral • S-015</text>
</svg>