<svg xmlns="http://www.w3.org/2000/svg" width="744" height="1039" viewBox="0 0 744 1039">
<defs><linearGradient id="g" x1="0" x2="1" y1="0" y2="1"><stop offset="0" stop-color="hsl(199 55% 36%)"/><stop offset="1" stop-color="hsl(63 56% 48%)"/></linearGradient></defs>
<rect width="744" height="1039" fill="#080b14"/>
<rect x="20" y="20" width="704" height="999" rx="28" fill="url(#g)"/>
<circle cx="331" cy="801" r="100" fill="hsl(199 55% 36%)" opacity="0.25"/><circle cx="161" cy="639" r="65" fill="hsl(63 56% 48%)" opacity="0.41"/><circle cx="339" cy="330" r="49" fill="hsl(4 55% 52%)" opacity="0.48"/><circle cx="271" cy="837" r="120" fill="hsl(199 55% 36%)" opacity="0.29"/><circle cx="327" cy="242" r="115" fill="hsl(63 56% 48%)" opacity="0.12"/>
<path d="M40 760 Q372 721 704 760 L704 1010 L40 1010 Z" fill="hsl(63 56% 48%)" opacity="0.5"/>
<rect x="70" y="850" width="14" height="91" fill="hsl(4 55% 52%)" opacity="0.55"/><rect x="90" y="840" width="14" height="90" fill="hsl(4 55% 52%)" opacity="0.55"/><rect x="110" y="830" width="14" height="105" fill="hsl(4 55% 52%)" opacity="0.55"/><rect x="130" y="820" width="14" height="93" fill="hsl(4 55% 52%)" opacity="0.55"/><rect x="150" y="810" width="14" height="105" fill="hsl(4 55% 52%)" opacity="0.55"/><rect x="170" y="800" width="14" height="108" fill="hsl(4 55% 52%)" opacity="0.55"/><rect x="190" y="790" width="14" height="109" fill="hsl(4 55% 52%)" opacity="0.55"/><rect x="210" y="780" width="14" height="79" fill="hsl(4 55% 52%)" opacity="0.55"/><rect x="230" y="770" width="14" height="72" fill="hsl(4 55% 52%)" opacity="0.55"/><rect x="250" y="760" width="14" height="100" fill="hsl(4 55% 52%)" opacity="0.55"/><rect x="270" y="750" width="14" height="92" fill="hsl(4 55% 52%)" opacity="0.55"/><rect x="290" y="740" width="14" height="120" fill="hsl(4 55% 52%)" opacity="0.55"/><rect x="310" y="730" width="14" height="112" fill="hsl(4 55% 52%)" opacity="0.55"/><rect x="330" y="720" width="14" height="80" fill="hsl(4 55% 52%)" opacity="0.55"/><rect x="350" y="710" width="14" height="87" fill="hsl(4 55% 52%)" opacity="0.55"/><rect x="370" y="700" width="14" height="89" fill="hsl(4 55% 52%)" opacity="0.55"/>
<text x="372" y="90" text-anchor="middle" fill="#ffffff" font-size="44" font-family="Verdana">Éclipse de l'Orbite</text>
<text x="372" y="980" text-anchor="middle" fill="#f3f3f3" font-size="26" font-family="Verdana">Raxen Ancestral • U-006</text>
</svg>