<svg xmlns="http://www.w3.org/2000/svg" width="744" height="1039" viewBox="0 0 744 1039">
<defs><linearGradient id="g" x1="0" x2="1" y1="0" y2="1"><stop offset="0" stop-color="hsl(178 85% 42%)"/><stop offset="1" stop-color="hsl(20 72% 34%)"/></linearGradient></defs>
<rect width="744" height="1039" fill="#080b14"/>
<rect x="20" y="20" width="704" height="999" rx="28" fill="url(#g)"/>
<circle cx="470" cy="700" r="47" fill="hsl(178 85% 42%)" opacity="0.18"/><circle cx="141" cy="663" r="135" fill="hsl(20 72% 34%)" opacity="0.21"/><circle cx="107" cy="435" r="145" fill="hsl(227 64% 40%)" opacity="0.16"/><circle cx="641" cy="207" r="41" fill="hsl(178 85% 42%)" opacity="0.45"/><circle cx="645" cy="590" r="127" fill="hsl(20 72% 34%)" opacity="0.14"/>
<path d="M40 760 Q372 660 704 760 L704 1010 L40 1010 Z" fill="hsl(20 72% 34%)" opacity="0.5"/>
<rect x="70" y="850" width="14" height="90" fill="hsl(227 64% 40%)" opacity="0.55"/><rect x="90" y="840" width="14" height="105" fill="hsl(227 64% 40%)" opacity="0.55"/><rect x="110" y="830" width="14" height="78" fill="hsl(227 64% 40%)" opacity="0.55"/><rect x="130" y="820" width="14" height="72" fill="hsl(227 64% 40%)" opacity="0.55"/><rect x="150" y="810" width="14" height="115" fill="hsl(227 64% 40%)" opacity="0.55"/><rect x="170" y="800" width="14" height="96" fill="hsl(227 64% 40%)" opacity="0.55"/><rect x="190" y="790" width="14" height="121" fill="hsl(227 64% 40%)" opacity="0.55"/><rect x="210" y="780" width="14" height="127" fill="hsl(227 64% 40%)" opacity="0.55"/><rect x="230" y="770" width="14" height="114" fill="hsl(227 64% 40%)" opacity="0.55"/><rect x="250" y="760" width="14" height="81" fill="hsl(227 64% 40%)" opacity="0.55"/><rect x="270" y="750" width="14" height="72" fill="hsl(227 64% 40%)" opacity="0.55"/><rect x="290" y="740" width="14" height="85" fill="hsl(227 64% 40%)" opacity="0.55"/><rect x="310" y="730" width="14" height="118" fill="hsl(227 64% 40%)" opacity="0.55"/><rect x="330" y="720" width="14" height="112" fill="hsl(227 64% 40%)" opacity="0.55"/><rect x="350" y="710" width="14" height="125" fill="hsl(227 64% 40%)" opacity="0.55"/><rect x="370" y="700" width="14" height="128" fill="hsl(227 64% 40%)" opacity="0.55"/>
<text x="372" y="90" text-anchor="middle" fill="#ffffff" font-size="44" font-family="Verdana">Tempête de l'Aube Sombre</text>
<text x="372" y="980" text-anchor="middle" fill="#f3f3f3" font-size="26" font-family="Verdana">Raxen Ancestral • U-008</text>
</svg>