<svg xmlns="http://www.w3.org/2000/svg" width="744" height="1039" viewBox="0 0 744 1039">
<defs><linearGradient id="g" x1="0" x2="1" y1="0" y2="1"><stop offset="0" stop-color="hsl(289 80% 52%)"/><stop offset="1" stop-color="hsl(88 70% 48%)"/></linearGradient></defs>
<rect width="744" height="1039" fill="#080b14"/>
<rect x="20" y="20" width="704" height="999" rx="28" fill="url(#g)"/>
<circle cx="478" cy="268" r="38" fill="hsl(289 80% 52%)" opacity="0.34"/><circle cx="268" cy="281" r="79" fill="hsl(88 70% 48%)" opacity="0.28"/><circle cx="555" cy="643" r="80" fill="hsl(79 67% 54%)" opacity="0.12"/><circle cx="417" cy="849" r="129" fill="hsl(289 80% 52%)" opacity="0.20"/><circle cx="140" cy="444" r="51" fill="hsl(88 70% 48%)" opacity="0.46"/>
<path d="M40 760 Q372 708 704 760 L704 1010 L40 1010 Z" fill="hsl(88 70% 48%)" opacity="0.5"/>
<rect x="70" y="850" width="14" height="78" fill="hsl(79 67% 54%)" opacity="0.55"/><rect x="90" y="840" width="14" height="87" fill="hsl(79 67% 54%)" opacity="0.55"/><rect x="110" y="830" width="14" height="74" fill="hsl(79 67% 54%)" opacity="0.55"/><rect x="130" y="820" width="14" height="86" fill="hsl(79 67% 54%)" opacity="0.55"/><rect x="150" y="810" width="14" height="119" fill="hsl(79 67% 54%)" opacity="0.55"/><rect x="170" y="800" width="14" height="112" fill="hsl(79 67% 54%)" opacity="0.55"/><rect x="190" y="790" width="14" height="110" fill="hsl(79 67% 54%)" opacity="0.55"/><rect x="210" y="780" width="14" height="95" fill="hsl(79 67% 54%)" opacity="0.55"/><rect x="230" y="770" width="14" height="106" fill="hsl(79 67% 54%)" opacity="0.55"/><rect x="250" y="760" width="14" height="109" fill="hsl(79 67% 54%)" opacity="0.55"/><rect x="270" y="750" width="14" height="124" fill="hsl(79 67% 54%)" opacity="0.55"/><rect x="290" y="740" width="14" height="113" fill="hsl(79 67% 54%)" opacity="0.55"/><rect x="310" y="730" width="14" height="80" fill="hsl(79 67% 54%)" opacity="0.55"/><rect x="330" y="720" width="14" height="72" fill="hsl(79 67% 54%)" opacity="0.55"/><rect x="350" y="710" width="14" height="100" fill="hsl(79 67% 54%)" opacity="0.55"/><rect x="370" y="700" width="14" height="122" fill="hsl(79 67% 54%)" opacity="0.55"/>
<text x="372" y="90" text-anchor="middle" fill="#ffffff" font-size="44" font-family="Verdana">Prisme du Flux</text>
<text x="372" y="980" text-anchor="middle" fill="#f3f3f3" font-size="26" font-family="Verdana">Raxen Ancestral • U-007</text>
</svg>