<svg xmlns="http://www.w3.org/2000/svg" width="744" height="1039" viewBox="0 0 744 1039">
<defs><linearGradient id="g" x1="0" x2="1" y1="0" y2="1"><stop offset="0" stop-color="hsl(33 63% 58%)"/><stop offset="1" stop-color="hsl(237 89% 41%)"/></linearGradient></defs>
<rect width="744" height="1039" fill="#080b14"/>
<rect x="20" y="20" width="704" height="999" rx="28" fill="url(#g)"/>
<circle cx="227" cy="497" r="117" fill="hsl(33 63% 58%)" opacity="0.33"/><circle cx="287" cy="577" r="88" fill="hsl(237 89% 41%)" opacity="0.47"/><circle cx="297" cy="183" r="84" fill="hsl(85 67% 44%)" opacity="0.44"/><circle cx="616" cy="157" r="42" fill="hsl(33 63% 58%)" opacity="0.24"/><circle cx="422" cy="655" r="101" fill="hsl(237 89% 41%)" opacity="0.21"/>
<path d="M40 760 Q372 737 704 760 L704 1010 L40 1010 Z" fill="hsl(237 89% 41%)" opacity="0.5"/>
<rect x="70" y="850" width="14" height="107" fill="hsl(85 67% 44%)" opacity="0.55"/><rect x="90" y="840" width="14" height="124" fill="hsl(85 67% 44%)" opacity="0.55"/><rect x="110" y="830" width="14" height="113" fill="hsl(85 67% 44%)" opacity="0.55"/><rect x="130" y="820" width="14" height="125" fill="hsl(85 67% 44%)" opacity="0.55"/><rect x="150" y="810" width="14" height="128" fill="hsl(85 67% 44%)" opacity="0.55"/><rect x="170" y="800" width="14" height="84" fill="hsl(85 67% 44%)" opacity="0.55"/><rect x="190" y="790" width="14" height="118" fill="hsl(85 67% 44%)" opacity="0.55"/><rect x="210" y="780" width="14" height="97" fill="hsl(85 67% 44%)" opacity="0.55"/><rect x="230" y="770" width="14" height="121" fill="hsl(85 67% 44%)" opacity="0.55"/><rect x="250" y="760" width="14" height="82" fill="hsl(85 67% 44%)" opacity="0.55"/><rect x="270" y="750" width="14" height="103" fill="hsl(85 67% 44%)" opacity="0.55"/><rect x="290" y="740" width="14" height="93" fill="hsl(85 67% 44%)" opacity="0.55"/><rect x="310" y="730" width="14" height="105" fill="hsl(85 67% 44%)" opacity="0.55"/><rect x="330" y="720" width="14" height="78" fill="hsl(85 67% 44%)" opacity="0.55"/><rect x="350" y="710" width="14" height="102" fill="hsl(85 67% 44%)" opacity="0.55"/><rect x="370" y="700" width="14" height="93" fill="hsl(85 67% 44%)" opacity="0.55"/>
<text x="372" y="90" text-anchor="middle" fill="#ffffff" font-size="44" font-family="Verdana">Faille de l'Orbite</text>
<text x="372" y="980" text-anchor="middle" fill="#f3f3f3" font-size="26" font-family="Verdana">Raxen Ancestral • U-016</text>
</svg>