<svg xmlns="http://www.w3.org/2000/svg" width="744" height="1039" viewBox="0 0 744 1039">
<defs><linearGradient id="g" x1="0" x2="1" y1="0" y2="1"><stop offset="0" stop-color="hsl(278 78% 44%)"/><stop offset="1" stop-color="hsl(182 82% 46%)"/></linearGradient></defs>
<rect width="744" height="1039" fill="#080b14"/>
<rect x="20" y="20" width="704" height="999" rx="28" fill="url(#g)"/>
<circle cx="519" cy="349" r="33" fill="hsl(278 78% 44%)" opacity="0.31"/><circle cx="412" cy="625" r="71" fill="hsl(182 82% 46%)" opacity="0.12"/><circle cx="403" cy="520" r="136" fill="hsl(77 87% 37%)" opacity="0.20"/><circle cx="490" cy="402" r="74" fill="hsl(278 78% 44%)" opacity="0.36"/><circle cx="185" cy="209" r="110" fill="hsl(182 82% 46%)" opacity="0.28"/>
<path d="M40 760 Q372 669 704 760 L704 1010 L40 1010 Z" fill="hsl(182 82% 46%)" opacity="0.5"/>
<rect x="70" y="850" width="14" height="99" fill="hsl(77 87% 37%)" opacity="0.55"/><rect x="90" y="840" width="14" height="77" fill="hsl(77 87% 37%)" opacity="0.55"/><rect x="110" y="830" width="14" height="71" fill="hsl(77 87% 37%)" opacity="0.55"/><rect x="130" y="820" width="14" height="115" fill="hsl(77 87% 37%)" opacity="0.55"/><rect x="150" y="810" width="14" height="111" fill="hsl(77 87% 37%)" opacity="0.55"/><rect x="170" y="800" width="14" height="80" fill="hsl(77 87% 37%)" opacity="0.55"/><rect x="190" y="790" width="14" height="102" fill="hsl(77 87% 37%)" opacity="0.55"/><rect x="210" y="780" width="14" height="123" fill="hsl(77 87% 37%)" opacity="0.55"/><rect x="230" y="770" width="14" height="128" fill="hsl(77 87% 37%)" opacity="0.55"/><rect x="250" y="760" width="14" height="114" fill="hsl(77 87% 37%)" opacity="0.55"/><rect x="270" y="750" width="14" height="111" fill="hsl(77 87% 37%)" opacity="0.55"/><rect x="290" y="740" width="14" height="110" fill="hsl(77 87% 37%)" opacity="0.55"/><rect x="310" y="730" width="14" height="110" fill="hsl(77 87% 37%)" opacity="0.55"/><rect x="330" y="720" width="14" height="110" fill="hsl(77 87% 37%)" opacity="0.55"/><rect x="350" y="710" width="14" height="125" fill="hsl(77 87% 37%)" opacity="0.55"/><rect x="370" y="700" width="14" height="113" fill="hsl(77 87% 37%)" opacity="0.55"/>
<text x="372" y="90" text-anchor="middle" fill="#ffffff" font-size="44" font-family="Verdana">Éclipse de l'Aube Sombre</text>
<text x="372" y="980" text-anchor="middle" fill="#f3f3f3" font-size="26" font-family="Verdana">Raxen Ancestral • U-018</text>
</svg>