<svg xmlns="http://www.w3.org/2000/svg" width="744" height="1039" viewBox="0 0 744 1039">
<defs><linearGradient id="g" x1="0" x2="1" y1="0" y2="1"><stop offset="0" stop-color="hsl(293 55% 37%)"/><stop offset="1" stop-color="hsl(243 75% 34%)"/></linearGradient></defs>
<rect width="744" height="1039" fill="#080b14"/>
<rect x="20" y="20" width="704" height="999" rx="28" fill="url(#g)"/>
<circle cx="630" cy="220" r="87" fill="hsl(293 55% 37%)" opacity="0.38"/><circle cx="238" cy="394" r="144" fill="hsl(243 75% 34%)" opacity="0.38"/><circle cx="209" cy="842" r="108" fill="hsl(146 63% 45%)" opacity="0.38"/><circle cx="95" cy="546" r="32" fill="hsl(293 55% 37%)" opacity="0.48"/><circle cx="133" cy="409" r="71" fill="hsl(243 75% 34%)" opacity="0.19"/>
<path d="M40 760 Q372 740 704 760 L704 1010 L40 1010 Z" fill="hsl(243 75% 34%)" opacity="0.5"/>
<rect x="70" y="850" width="14" height="110" fill="hsl(146 63% 45%)" opacity="0.55"/><rect x="90" y="840" width="14" height="125" fill="hsl(146 63% 45%)" opacity="0.55"/><rect x="110" y="830" width="14" height="98" fill="hsl(146 63% 45%)" opacity="0.55"/><rect x="130" y="820" width="14" height="107" fill="hsl(146 63% 45%)" opacity="0.55"/><rect x="150" y="810" width="14" height="124" fill="hsl(146 63% 45%)" opacity="0.55"/><rect x="170" y="800" width="14" height="98" fill="hsl(146 63% 45%)" opacity="0.55"/><rect x="190" y="790" width="14" height="107" fill="hsl(146 63% 45%)" opacity="0.55"/><rect x="210" y="780" width="14" height="109" fill="hsl(146 63% 45%)" opacity="0.55"/><rect x="230" y="770" width="14" height="79" fill="hsl(146 63% 45%)" opacity="0.55"/><rect x="250" y="760" width="14" height="72" fill="hsl(146 63% 45%)" opacity="0.55"/><rect x="270" y="750" width="14" height="100" fill="hsl(146 63% 45%)" opacity="0.55"/><rect x="290" y="740" width="14" height="92" fill="hsl(146 63% 45%)" opacity="0.55"/><rect x="310" y="730" width="14" height="90" fill="hsl(146 63% 45%)" opacity="0.55"/><rect x="330" y="720" width="14" height="105" fill="hsl(146 63% 45%)" opacity="0.55"/><rect x="350" y="710" width="14" height="93" fill="hsl(146 63% 45%)" opacity="0.55"/><rect x="370" y="700" width="14" height="120" fill="hsl(146 63% 45%)" opacity="0.55"/>
<text x="372" y="90" text-anchor="middle" fill="#ffffff" font-size="44" font-family="Verdana">Obsidienne du Flux</text>
<text x="372" y="980" text-anchor="middle" fill="#f3f3f3" font-size="26" font-family="Verdana">Raxen Ancestral • U-017</text>
</svg>