<svg xmlns="http://www.w3.org/2000/svg" width="744" height="1039" viewBox="0 0 744 1039">
<defs><linearGradient id="g" x1="0" x2="1" y1="0" y2="1"><stop offset="0" stop-color="hsl(303 66% 47%)"/><stop offset="1" stop-color="hsl(18 67% 46%)"/></linearGradient></defs>
<rect width="744" height="1039" fill="#080b14"/>
<rect x="20" y="20" width="704" height="999" rx="28" fill="url(#g)"/>
<circle cx="552" cy="662" r="97" fill="hsl(303 66% 47%)" opacity="0.23"/><circle cx="596" cy="176" r="43" fill="hsl(18 67% 46%)" opacity="0.36"/><circle cx="632" cy="473" r="34" fill="hsl(71 68% 50%)" opacity="0.43"/><circle cx="317" cy="143" r="48" fill="hsl(303 66% 47%)" opacity="0.14"/><circle cx="511" cy="439" r="86" fill="hsl(18 67% 46%)" opacity="0.45"/>
<path d="M40 760 Q372 702 704 760 L704 1010 L40 1010 Z" fill="hsl(18 67% 46%)" opacity="0.5"/>
<rect x="70" y="850" width="14" height="72" fill="hsl(71 68% 50%)" opacity="0.55"/><rect x="90" y="840" width="14" height="85" fill="hsl(71 68% 50%)" opacity="0.55"/><rect x="110" y="830" width="14" height="103" fill="hsl(71 68% 50%)" opacity="0.55"/><rect x="130" y="820" width="14" height="123" fill="hsl(71 68% 50%)" opacity="0.55"/><rect x="150" y="810" width="14" height="83" fill="hsl(71 68% 50%)" opacity="0.55"/><rect x="170" y="800" width="14" height="103" fill="hsl(71 68% 50%)" opacity="0.55"/><rect x="190" y="790" width="14" height="78" fill="hsl(71 68% 50%)" opacity="0.55"/><rect x="210" y="780" width="14" height="72" fill="hsl(71 68% 50%)" opacity="0.55"/><rect x="230" y="770" width="14" height="85" fill="hsl(71 68% 50%)" opacity="0.55"/><rect x="250" y="760" width="14" height="88" fill="hsl(71 68% 50%)" opacity="0.55"/><rect x="270" y="750" width="14" height="104" fill="hsl(71 68% 50%)" opacity="0.55"/><rect x="290" y="740" width="14" height="123" fill="hsl(71 68% 50%)" opacity="0.55"/><rect x="310" y="730" width="14" height="98" fill="hsl(71 68% 50%)" opacity="0.55"/><rect x="330" y="720" width="14" height="77" fill="hsl(71 68% 50%)" opacity="0.55"/><rect x="350" y="710" width="14" height="71" fill="hsl(71 68% 50%)" opacity="0.55"/><rect x="370" y="700" width="14" height="115" fill="hsl(71 68% 50%)" opacity="0.55"/>
<text x="372" y="90" text-anchor="middle" fill="#ffffff" font-size="44" font-family="Verdana">Crypte de l'Œil</text>
<text x="372" y="980" text-anchor="middle" fill="#f3f3f3" font-size="26" font-family="Verdana">Raxen Ancestral • U-014</text>
</svg>