<svg xmlns="http://www.w3.org/2000/svg" width="744" height="1039" viewBox="0 0 744 1039">
<defs><linearGradient id="g" x1="0" x2="1" y1="0" y2="1"><stop offset="0" stop-color="hsl(202 64% 38%)"/><stop offset="1" stop-color="hsl(311 79% 43%)"/></linearGradient></defs>
<rect width="744" height="1039" fill="#080b14"/>
<rect x="20" y="20" width="704" height="999" rx="28" fill="url(#g)"/>
<circle cx="157" cy="187" r="78" fill="hsl(202 64% 38%)" opacity="0.14"/><circle cx="300" cy="488" r="95" fill="hsl(311 79% 43%)" opacity="0.20"/><circle cx="411" cy="849" r="32" fill="hsl(185 85% 54%)" opacity="0.26"/><circle cx="188" cy="524" r="60" fill="hsl(202 64% 38%)" opacity="0.12"/><circle cx="633" cy="727" r="94" fill="hsl(311 79% 43%)" opacity="0.10"/>
<path d="M40 760 Q372 667 704 760 L704 1010 L40 1010 Z" fill="hsl(311 79% 43%)" opacity="0.5"/>
<rect x="70" y="850" width="14" height="97" fill="hsl(185 85% 54%)" opacity="0.55"/><rect x="90" y="840" width="14" height="106" fill="hsl(185 85% 54%)" opacity="0.55"/><rect x="110" y="830" width="14" height="94" fill="hsl(185 85% 54%)" opacity="0.55"/><rect x="130" y="820" width="14" height="91" fill="hsl(185 85% 54%)" opacity="0.55"/><rect x="150" y="810" width="14" height="75" fill="hsl(185 85% 54%)" opacity="0.55"/><rect x="170" y="800" width="14" height="86" fill="hsl(185 85% 54%)" opacity="0.55"/><rect x="190" y="790" width="14" height="74" fill="hsl(185 85% 54%)" opacity="0.55"/><rect x="210" y="780" width="14" height="71" fill="hsl(185 85% 54%)" opacity="0.55"/><rect x="230" y="770" width="14" height="70" fill="hsl(185 85% 54%)" opacity="0.55"/><rect x="250" y="760" width="14" height="100" fill="hsl(185 85% 54%)" opacity="0.55"/><rect x="270" y="750" width="14" height="107" fill="hsl(185 85% 54%)" opacity="0.55"/><rect x="290" y="740" width="14" height="79" fill="hsl(185 85% 54%)" opacity="0.55"/><rect x="310" y="730" width="14" height="102" fill="hsl(185 85% 54%)" opacity="0.55"/><rect x="330" y="720" width="14" height="123" fill="hsl(185 85% 54%)" opacity="0.55"/><rect x="350" y="710" width="14" height="113" fill="hsl(185 85% 54%)" opacity="0.55"/><rect x="370" y="700" width="14" height="125" fill="hsl(185 85% 54%)" opacity="0.55"/>
<text x="372" y="90" text-anchor="middle" fill="#ffffff" font-size="44" font-family="Verdana">Shard de l'Œil</text>
<text x="372" y="980" text-anchor="middle" fill="#f3f3f3" font-size="26" font-family="Verdana">Raxen Ancestral • U-024</text>
</svg>