<svg xmlns="http://www.w3.org/2000/svg" width="744" height="1039" viewBox="0 0 744 1039">
<defs><linearGradient id="g" x1="0" x2="1" y1="0" y2="1"><stop offset="0" stop-color="hsl(327 57% 43%)"/><stop offset="1" stop-color="hsl(296 79% 40%)"/></linearGradient></defs>
<rect width="744" height="1039" fill="#080b14"/>
<rect x="20" y="20" width="704" height="999" rx="28" fill="url(#g)"/>
<circle cx="576" cy="486" r="110" fill="hsl(327 57% 43%)" opacity="0.30"/><circle cx="347" cy="306" r="118" fill="hsl(296 79% 40%)" opacity="0.27"/><circle cx="258" cy="363" r="126" fill="hsl(144 78% 45%)" opacity="0.22"/><circle cx="336" cy="805" r="40" fill="hsl(327 57% 43%)" opacity="0.26"/><circle cx="266" cy="623" r="131" fill="hsl(296 79% 40%)" opacity="0.12"/>
<path d="M40 760 Q372 686 704 760 L704 1010 L40 1010 Z" fill="hsl(296 79% 40%)" opacity="0.5"/>
<rect x="70" y="850" width="14" height="116" fill="hsl(144 78% 45%)" opacity="0.55"/><rect x="90" y="840" width="14" height="111" fill="hsl(144 78% 45%)" opacity="0.55"/><rect x="110" y="830" width="14" height="110" fill="hsl(144 78% 45%)" opacity="0.55"/><rect x="130" y="820" width="14" height="125" fill="hsl(144 78% 45%)" opacity="0.55"/><rect x="150" y="810" width="14" height="98" fill="hsl(144 78% 45%)" opacity="0.55"/><rect x="170" y="800" width="14" height="122" fill="hsl(144 78% 45%)" opacity="0.55"/><rect x="190" y="790" width="14" height="83" fill="hsl(144 78% 45%)" opacity="0.55"/><rect x="210" y="780" width="14" height="118" fill="hsl(144 78% 45%)" opacity="0.55"/><rect x="230" y="770" width="14" height="112" fill="hsl(144 78% 45%)" opacity="0.55"/><rect x="250" y="760" width="14" height="80" fill="hsl(144 78% 45%)" opacity="0.55"/><rect x="270" y="750" width="14" height="102" fill="hsl(144 78% 45%)" opacity="0.55"/><rect x="290" y="740" width="14" height="93" fill="hsl(144 78% 45%)" opacity="0.55"/><rect x="310" y="730" width="14" height="120" fill="hsl(144 78% 45%)" opacity="0.55"/><rect x="330" y="720" width="14" height="97" fill="hsl(144 78% 45%)" opacity="0.55"/><rect x="350" y="710" width="14" height="106" fill="hsl(144 78% 45%)" opacity="0.55"/><rect x="370" y="700" width="14" height="94" fill="hsl(144 78% 45%)" opacity="0.55"/>
<text x="372" y="90" text-anchor="middle" fill="#ffffff" font-size="44" font-family="Verdana">Vortex de l'Aube Sombre</text>
<text x="372" y="980" text-anchor="middle" fill="#f3f3f3" font-size="26" font-family="Verdana">Raxen Ancestral • U-023</text>
</svg>